<svg width="346" height="176" viewBox="0 0 346 176" fill="none" xmlns="http://www.w3.org/2000/svg">
<g clip-path="url(#clip0)">
<path d="M22.2443 175.569C22.2443 175.569 -19.595 133.738 15.1682 88.4517C46.0127 48.27 81.9745 51.0175 108.363 67.3233C119.601 74.264 151.999 68.179 179.581 27.2924C217.176 -28.4652 347.53 5.35147 323.762 91.137C312.26 132.651 358.766 134.16 335.07 175.657L22.2443 175.569Z" fill="#8CD6FF"/>
<path d="M208.828 158.021C208.828 157.997 208.96 155.296 207.651 154.671L207.743 154.582C208.344 154.79 209.008 155.435 209.273 156.347C209.472 157.024 209.322 157.173 209.323 157.198L208.828 158.021Z" fill="#A4C8FC"/>
<path d="M200.147 151.021C200.147 151.021 200.595 154.498 202.723 155.516C204.852 156.535 207.854 154.706 207.854 154.706C207.854 154.706 207.406 151.229 205.278 150.212C203.15 149.195 200.147 151.021 200.147 151.021Z" fill="#A4C8FC"/>
<path d="M208.609 163.088C208.585 162.953 208.112 159.771 209.32 156.226C210.482 152.819 209.839 149.932 209.834 149.903H210.688C210.71 150.023 210.77 152.861 209.86 156.746C209.04 160.242 210.569 163.088 210.244 163.088H208.609Z" fill="#A4C8FC"/>
<path d="M210.399 153.698C210.399 153.679 210.81 151.349 211.908 151.083C211.599 151.137 211.306 151.26 211.052 151.445C210.798 151.63 210.591 151.87 210.445 152.148C210.187 152.627 210.277 152.769 210.272 152.788L210.399 153.698Z" fill="#A4C8FC"/>
<path d="M213.92 153.938C212.279 153.608 211.364 151.297 211.364 151.297C211.364 151.297 213.108 149.521 214.749 149.85C216.389 150.179 217.303 152.491 217.303 152.491C217.303 152.491 215.559 154.268 213.92 153.938Z" fill="#A4C8FC"/>
<path d="M201.18 146.406C200.245 144.991 199.752 143.332 199.763 141.638C199.774 139.944 200.29 138.291 201.244 136.889C202.198 135.486 203.548 134.397 205.123 133.76C206.698 133.122 208.427 132.963 210.093 133.305C211.758 133.647 213.284 134.473 214.479 135.679C215.673 136.884 216.481 138.416 216.802 140.08C217.122 141.744 216.941 143.465 216.28 145.026C215.618 146.586 214.508 147.917 213.088 148.849C211.184 150.098 208.859 150.542 206.626 150.084C204.393 149.626 202.434 148.303 201.18 146.406Z" fill="#FFB93E"/>
<path d="M212.724 148.297C211.211 149.291 209.398 149.73 207.596 149.542C205.794 149.353 204.113 148.548 202.84 147.263C201.567 145.978 200.781 144.292 200.615 142.494C200.449 140.696 200.914 138.896 201.93 137.402C202.947 135.907 204.452 134.809 206.19 134.297C207.927 133.784 209.79 133.887 211.459 134.589C213.129 135.291 214.503 136.548 215.346 138.146C216.19 139.744 216.452 141.584 216.087 143.352C215.882 144.357 215.48 145.312 214.902 146.161C214.325 147.009 213.585 147.736 212.724 148.297ZM204.364 135.651C203.147 136.449 202.195 137.589 201.629 138.926C201.062 140.264 200.907 141.738 201.181 143.164C201.456 144.589 202.149 145.902 203.172 146.935C204.195 147.968 205.503 148.676 206.929 148.969C208.356 149.261 209.838 149.126 211.188 148.579C212.537 148.033 213.694 147.1 214.512 145.898C215.329 144.697 215.77 143.281 215.78 141.829C215.79 140.378 215.367 138.956 214.566 137.744C213.49 136.12 211.812 134.988 209.899 134.595C207.987 134.203 205.996 134.582 204.364 135.651Z" fill="#FFA412"/>
<path d="M210.566 143.081C210.5 142.943 210.41 142.818 210.3 142.712C210.195 142.615 210.07 142.544 209.933 142.503C209.768 142.456 209.597 142.431 209.425 142.431C209.197 142.431 208.969 142.447 208.744 142.48C208.329 142.535 207.911 142.568 207.492 142.58C207.137 142.593 206.782 142.557 206.437 142.474C206.126 142.398 205.834 142.257 205.582 142.061C205.063 141.621 204.739 140.994 204.68 140.318C204.662 140.013 204.708 139.709 204.815 139.424C204.931 139.123 205.1 138.845 205.314 138.603C205.557 138.329 205.841 138.094 206.155 137.905L205.572 136.747L206.508 136.28L207.099 137.454C207.434 137.333 207.787 137.269 208.143 137.264C208.472 137.257 208.799 137.316 209.105 137.438C209.41 137.559 209.688 137.74 209.922 137.971C210.187 138.232 210.406 138.536 210.568 138.871L208.878 139.708C208.66 139.276 208.398 139 208.1 138.882C207.949 138.823 207.786 138.799 207.625 138.81C207.463 138.821 207.305 138.868 207.163 138.946C207.007 139.02 206.866 139.121 206.747 139.245C206.65 139.348 206.578 139.471 206.535 139.604C206.496 139.731 206.485 139.865 206.504 139.996C206.525 140.136 206.569 140.272 206.634 140.398C206.694 140.522 206.775 140.635 206.874 140.732C206.974 140.825 207.095 140.893 207.226 140.931C207.392 140.979 207.564 141.002 207.736 141.001C207.977 141.002 208.218 140.988 208.457 140.96C208.906 140.912 209.323 140.885 209.707 140.878C210.062 140.869 210.417 140.91 210.762 140.997C211.073 141.075 211.365 141.216 211.618 141.413C211.891 141.633 212.11 141.913 212.259 142.23C212.412 142.521 212.501 142.84 212.522 143.168C212.538 143.471 212.49 143.775 212.38 144.058C212.262 144.357 212.089 144.632 211.87 144.867C211.624 145.137 211.341 145.37 211.029 145.561L211.57 146.638L210.64 147.103L210.102 146.026C209.766 146.154 209.415 146.241 209.057 146.283C208.71 146.326 208.357 146.304 208.018 146.216C207.67 146.124 207.345 145.956 207.069 145.725C206.743 145.446 206.48 145.102 206.297 144.715L207.988 143.878C208.091 144.1 208.238 144.3 208.418 144.465C208.56 144.592 208.73 144.684 208.914 144.732C209.085 144.775 209.263 144.779 209.436 144.743C209.61 144.708 209.779 144.65 209.938 144.571C210.103 144.492 210.254 144.387 210.384 144.259C210.492 144.155 210.577 144.029 210.634 143.891C210.686 143.764 210.708 143.627 210.697 143.491C210.682 143.347 210.637 143.207 210.566 143.081Z" fill="#FFA412"/>
<path d="M217.196 162.261V162.268L217.024 164.892L216.388 174.635H204.49L203.79 165.025L203.597 162.377L203.588 162.261H217.196Z" fill="#B4C9F7"/>
<path d="M217.195 162.263L217.023 164.888C214.885 164.18 212.645 163.822 210.392 163.829C206.293 163.829 203.786 165.025 203.786 165.025L203.593 162.377L217.195 162.263Z" fill="#9BB8EA"/>
<path d="M217.609 163.648H203.157L202.991 161.974H217.793L217.609 163.648Z" fill="#B4C9F7"/>
<path d="M216.571 175.155H204.234L204.093 174.571H216.728L216.571 175.155Z" fill="#B4C9F7"/>
<path d="M345.608 175.086H0.391515C0.175287 175.086 0 175.261 0 175.476V175.61C0 175.826 0.175287 176 0.391515 176H345.608C345.825 176 346 175.826 346 175.61V175.476C346 175.261 345.825 175.086 345.608 175.086Z" fill="#2E3552"/>
<path d="M291.07 112.425L289.915 113.359C289.915 113.359 286.755 112.231 286.042 115.972C286.042 115.972 285.852 117.567 286.866 117.569C287.879 117.572 287.466 117.396 288.896 117.438C290.327 117.479 291.522 116.72 291.732 115.565L292.419 114.581L291.07 112.425Z" fill="#EA8E50"/>
<path d="M291.201 114.431C290.279 113.474 290.353 112.763 290.353 112.763C290.353 112.763 301.025 104.058 302.107 103.348C302.844 102.869 310.704 95.9226 314.379 91.6899C316.2 89.5898 318.462 90.4047 321.04 91.1431L323.167 91.751C325.735 92.4857 326.403 96.059 324.296 97.8037C318.361 102.702 308.489 108.215 306.642 109.368C302.057 112.24 293.081 115.658 293.081 115.658C292.378 115.378 291.739 114.961 291.201 114.431Z" fill="#1E3D70"/>
<path d="M279.022 167.919C279.022 167.919 276.431 169.853 272.463 168.831C272.463 168.831 269.264 168.104 268.563 169.694C268.563 169.694 273.47 172.178 274.71 172.858C275.647 173.37 276.624 174.174 277.314 174.802C277.444 174.919 277.596 175.008 277.762 175.065C277.927 175.121 278.102 175.143 278.277 175.13C278.451 175.116 278.621 175.068 278.775 174.987C278.93 174.906 279.067 174.794 279.177 174.659C279.393 174.395 279.64 174.079 279.911 173.714C280.667 172.692 282.433 169.392 282.433 169.392L279.022 167.919Z" fill="#233862"/>
<path d="M308.394 99.7125C309.744 89.8386 302.806 80.7436 292.897 79.3981C282.987 78.0525 273.86 84.9661 272.509 94.8399C271.159 104.714 278.097 113.809 288.007 115.154C297.916 116.5 307.044 109.586 308.394 99.7125Z" fill="#E2810E"/>
<path d="M304.846 110.041C311.918 102.994 311.918 91.5698 304.846 84.5234C297.774 77.477 286.309 77.477 279.237 84.5234C272.166 91.5698 272.166 102.994 279.237 110.041C286.309 117.087 297.774 117.087 304.846 110.041Z" fill="#FFB93E"/>
<path d="M280.376 109.119C277.677 106.43 275.997 102.891 275.623 99.1066C275.25 95.3218 276.204 91.5248 278.325 88.3627C280.445 85.2007 283.601 82.869 287.253 81.7652C290.906 80.6613 294.829 80.8535 298.356 82.309C301.882 83.7645 304.792 86.3932 306.592 89.7473C308.391 93.1014 308.967 96.9734 308.222 100.703C307.478 104.433 305.458 107.791 302.508 110.203C299.557 112.616 295.858 113.935 292.042 113.935C289.874 113.941 287.727 113.518 285.725 112.691C283.722 111.865 281.904 110.651 280.376 109.119ZM276.532 97.4949C276.532 101.595 278.167 105.527 281.076 108.426C283.986 111.325 287.932 112.953 292.047 112.953C296.161 112.953 300.107 111.325 303.017 108.426C305.926 105.527 307.561 101.595 307.561 97.4949C307.561 88.9723 300.601 82.0376 292.047 82.0376C283.492 82.0376 276.528 88.9723 276.528 97.4949H276.532Z" fill="#FFA412"/>
<path d="M290.035 103.114C290.175 103.366 290.371 103.583 290.609 103.746C290.871 103.923 291.167 104.045 291.477 104.105C291.856 104.177 292.244 104.188 292.625 104.136C292.996 104.092 293.36 103.999 293.706 103.86C294.051 103.724 294.36 103.512 294.611 103.24C294.878 102.942 295.071 102.585 295.174 102.198C295.299 101.697 295.325 101.177 295.248 100.667L299.202 100.199C299.322 101.213 299.261 102.101 299.02 102.866C298.801 103.591 298.426 104.26 297.921 104.826C297.426 105.371 296.832 105.817 296.171 106.142C295.492 106.479 294.775 106.732 294.034 106.895L294.332 109.408L292.157 109.664L291.857 107.151C291.084 107.178 290.311 107.098 289.561 106.911C288.901 106.746 288.277 106.463 287.719 106.074C287.197 105.702 286.76 105.224 286.437 104.671C285.745 103.407 285.583 101.922 285.985 100.539C286.204 99.9019 286.552 99.3165 287.008 98.8196C287.516 98.2716 288.096 97.795 288.733 97.4027C289.418 96.9703 290.182 96.5376 291.027 96.1044C291.476 95.8793 291.912 95.6284 292.332 95.3528C292.638 95.1539 292.913 94.9121 293.149 94.6349C293.335 94.4151 293.468 94.1554 293.537 93.8762C293.599 93.5924 293.611 93.3001 293.573 93.0122C293.54 92.715 293.459 92.4252 293.333 92.1542C293.215 91.9015 293.042 91.6786 292.826 91.502C292.595 91.3186 292.326 91.1883 292.038 91.1202C291.684 91.0389 291.317 91.0235 290.957 91.0748C290.201 91.1633 289.626 91.4856 289.234 92.0417C288.842 92.5977 288.706 93.3819 288.828 94.3943L284.874 94.8622C284.772 94.0865 284.802 93.2991 284.964 92.5335C285.108 91.8583 285.386 91.2187 285.782 90.6526C286.178 90.0865 286.684 89.6054 287.27 89.2379C287.905 88.8364 288.601 88.5413 289.331 88.3643L289.003 85.612L291.193 85.3535L291.515 88.0628C292.284 88.0356 293.053 88.1243 293.796 88.326C294.454 88.5046 295.073 88.7989 295.627 89.1948C296.148 89.5714 296.584 90.0534 296.906 90.6093C297.589 91.8677 297.747 93.3436 297.347 94.7174C297.129 95.3538 296.78 95.9376 296.322 96.431C295.812 96.9762 295.229 97.4489 294.589 97.8359C293.839 98.2984 293.065 98.7222 292.271 99.1056C291.837 99.3087 291.417 99.5426 291.016 99.8056C290.713 100.005 290.44 100.247 290.207 100.524C290.013 100.754 289.874 101.025 289.801 101.317C289.731 101.631 289.718 101.955 289.762 102.274C289.797 102.569 289.89 102.855 290.035 103.114Z" fill="#FFA412"/>
<path d="M277.502 166.937C277.502 166.937 279.078 170.56 282.719 169.893C282.719 169.893 290.147 163.781 295.242 157.431C296.897 155.368 298.306 153.281 299.135 151.371C302.513 143.576 311.633 131.951 317.431 126.058L302.924 120.829C302.924 120.829 298.277 130.143 292.095 141.583C287.639 149.825 282.387 159.173 277.502 166.937Z" fill="#2B478B"/>
<path d="M292.094 141.583L295.242 157.431C296.897 155.368 298.306 153.281 299.135 151.371C302.513 143.576 311.633 131.951 317.431 126.058L302.924 120.829C302.924 120.829 298.277 130.143 292.094 141.583Z" fill="#233862"/>
<path d="M303.953 170.022C303.953 170.022 304.111 172.913 300.59 173.298C300.59 173.298 298.58 173.309 298.574 175.149L308.798 175.182C308.798 175.182 309.094 174.44 309.166 172.849C309.222 171.629 307.979 168.437 307.979 168.437L303.953 170.022Z" fill="#233862"/>
<path d="M307.682 120.829C307.682 120.829 301.22 127.905 297.113 140.653C294.882 147.594 301.205 165.027 302.437 171.085C302.437 171.085 306.679 171.444 309.58 170.327C309.58 170.327 309.801 157.813 308.104 148.168C307.155 142.77 316.612 136.624 320.746 126.867C323.558 120.232 320.137 120.344 315.934 120.185L307.682 120.829Z" fill="#2B478B"/>
<path d="M315.142 89.2595C318.738 91.2831 326.1 89.4175 326.1 89.4175C326.1 89.4175 323.111 86.0118 324.469 80.5275L321.646 81.9563L318.618 83.4904C318.458 84.3865 318.347 85.2905 318.285 86.1985C318.25 86.6472 318.219 87.1474 318.198 87.6943C317.092 88.0255 316.056 88.556 315.142 89.2595Z" fill="#FFB07B"/>
<path d="M301.958 120.463C301.958 121.093 302.686 121.395 302.841 121.42C304.292 121.684 308.34 123.253 311.989 123.613C315.059 123.934 317.912 123.63 321.045 123.003C321.459 122.919 322.433 122.658 322.503 122.262C322.588 121.829 334.587 97.891 325.265 87.6068C325.045 87.3675 323.204 87.8007 321.521 88.2052C320.101 88.5401 318.612 88.4186 317.266 87.8581L315.686 88.6862C313.748 89.7632 310.079 93.5926 309.649 96.5843C309.432 98.1112 308.555 99.2409 308.302 100.584C308.208 101.081 308.112 101.566 308.013 102.039C307.823 102.966 307.626 103.85 307.424 104.688C306.875 106.962 306.296 108.912 305.727 110.6C305.126 112.395 304.526 113.883 303.999 115.13C303.31 116.748 302.729 117.957 302.366 118.882C302.105 119.542 301.958 120.049 301.958 120.463Z" fill="#D2E3FC"/>
<path d="M302.362 118.886C319.295 110.935 325.164 95.6702 325.164 95.6702C325.164 95.6702 311.404 100.727 308.009 102.045C307.818 102.973 307.621 103.856 307.419 104.694C306.87 106.968 306.291 108.918 305.722 110.606C305.121 112.401 304.521 113.889 303.994 115.136C303.306 116.752 302.724 117.961 302.362 118.886Z" fill="#A4C8FC"/>
<path d="M292.452 114.277L290.988 114.812C290.988 114.812 288.058 112.746 286.233 116.105C286.233 116.105 285.573 117.573 286.618 117.891C287.663 118.209 287.282 117.91 288.751 118.397C290.22 118.884 291.666 118.534 292.221 117.488L293.216 116.76L292.452 114.277Z" fill="#FFB07B"/>
<path d="M291.248 116.34L290.46 114.296C290.46 114.296 301.519 105.315 302.645 104.545C303.413 104.019 311.058 98.322 314.784 93.8883C315.692 92.8088 316.877 91.995 318.212 91.5339C319.548 91.0727 320.984 90.9816 322.367 91.27L324.689 91.7559C327.492 92.341 328.403 95.8772 326.229 97.7392C320.104 102.97 309.775 109.038 307.854 110.304C303.073 113.437 292.497 117.828 292.497 117.828C292.497 117.828 291.673 117.446 291.248 116.34Z" fill="#D2E3FC"/>
<path d="M318.281 86.1984C321.816 86.397 324.116 83.4879 324.116 83.4879C324.116 83.4879 322.518 82.606 321.646 81.9562L318.618 83.4903C318.457 84.3863 318.344 85.2903 318.281 86.1984Z" fill="#EA8E50"/>
<path d="M316.774 82.5821C316.774 82.5821 322.132 86.4115 324.475 83.0512C326.818 79.691 329.087 77.9211 325.765 75.3327C322.443 72.7443 320.878 73.5628 319.822 74.495C318.767 75.4272 315.44 81.4992 316.774 82.5821Z" fill="#FFB07B"/>
<path d="M319.256 71.4591C319.365 70.7011 319.575 69.961 319.88 69.2584C319.88 69.2584 320.216 70.6454 322.762 70.4551C325.309 70.2648 329.343 70.7052 330.689 73.5951C330.775 73.7794 330.851 73.9685 330.919 74.1624C331.16 73.521 331.221 72.5612 331.221 72.5612C331.701 73.8058 331.221 75.3614 331.221 75.3614C331.228 75.4069 331.234 75.4524 331.24 75.4979C331.802 75.9765 332.274 77.4424 332.274 77.4424C332.105 77.032 331.69 76.7639 331.323 76.6048C331.334 78.8545 330.419 81.0528 328.812 81.7074C326.463 82.6647 326.482 81.9335 324.12 83.4952C324.12 83.4952 323.485 82.7114 323.918 82.1789C324.35 81.6463 325.983 80.8877 325.071 80.1218C324.158 79.3559 323.822 80.2175 323.485 79.691C323.149 79.1644 324.831 77.6339 322.67 76.1979C320.509 74.7619 319.063 72.7527 319.256 71.4591Z" fill="#233862"/>
<path d="M88.5774 172.206V174.29C88.5765 174.454 88.5183 174.613 88.4129 174.739C88.295 174.88 88.1386 174.985 87.9625 175.04C87.9053 175.059 87.8467 175.073 87.7872 175.081C87.7308 175.09 87.6737 175.094 87.6166 175.094H47.9199C47.4083 175.094 46.9867 174.754 46.9591 174.332C46.9591 174.319 46.9591 174.304 46.9591 174.29V172.206C46.9591 172.191 46.9591 172.178 46.9591 172.164C46.9855 171.741 47.4071 171.401 47.9199 171.401H87.6166C87.6737 171.401 87.7308 171.406 87.7872 171.415C87.8467 171.424 87.9054 171.438 87.9625 171.456C88.1388 171.511 88.2953 171.615 88.4129 171.757C88.5183 171.883 88.5765 172.041 88.5774 172.206Z" fill="#FFB93E"/>
<path d="M69.0856 175.094H47.8201C47.607 175.099 47.4 175.023 47.241 174.881C47.082 174.74 46.9829 174.543 46.9638 174.332C46.9638 174.319 46.9638 174.304 46.9638 174.29V172.205C46.9638 172.191 46.9638 172.178 46.9638 172.164C46.9829 171.952 47.082 171.756 47.241 171.614C47.4 171.472 47.607 171.396 47.8201 171.401H66.4747C66.8717 172.905 67.7985 174.216 69.0856 175.094Z" fill="#FFA412"/>
<path d="M83.7482 171.402H83.2966V175.095H83.7482V171.402Z" fill="#FFA412"/>
<path d="M82.2218 171.402H81.7703V175.095H82.2218V171.402Z" fill="#FFA412"/>
<path d="M80.3904 171.402H79.9388V175.095H80.3904V171.402Z" fill="#FFA412"/>
<path d="M77.5837 171.402H77.1321V175.095H77.5837V171.402Z" fill="#FFA412"/>
<path d="M74.6149 171.402H74.1634V175.095H74.6149V171.402Z" fill="#FFA412"/>
<path d="M70.0645 171.402H69.6129V175.095H70.0645V171.402Z" fill="#FFA412"/>
<path d="M65.8035 171.402H65.3519V175.095H65.8035V171.402Z" fill="#FFA412"/>
<path d="M61.9987 171.402H61.5472V175.095H61.9987V171.402Z" fill="#FFA412"/>
<path d="M85.2027 171.402H84.7512V175.095H85.2027V171.402Z" fill="#FFA412"/>
<path d="M86.1623 171.402H85.7107V175.095H86.1623V171.402Z" fill="#FFA412"/>
<path d="M87.0894 171.402H86.6378V175.095H87.0894V171.402Z" fill="#FFA412"/>
<path d="M87.7921 171.415V175.081C87.7357 175.09 87.6787 175.094 87.6216 175.094H87.3357V171.401H87.6168C87.6755 171.401 87.7341 171.406 87.7921 171.415Z" fill="#FFA412"/>
<path d="M88.413 171.757V174.739C88.295 174.88 88.1386 174.985 87.9625 175.04V171.45C88.1395 171.506 88.2961 171.613 88.413 171.757Z" fill="#FFA412"/>
<path d="M84.3332 168.512V170.598C84.3323 170.762 84.2741 170.921 84.1687 171.047C84.0506 171.188 83.8943 171.292 83.7183 171.347C83.6612 171.366 83.6025 171.38 83.543 171.389C83.4869 171.397 83.4303 171.401 83.3737 171.401H43.6793C43.1677 171.401 42.7461 171.063 42.7185 170.639C42.7185 170.626 42.7185 170.611 42.7185 170.598V168.512C42.7185 168.499 42.7185 168.485 42.7185 168.472C42.7449 168.048 43.1665 167.709 43.6793 167.709H83.3737H83.4493H83.4818H83.5178H83.543C83.6025 167.718 83.6612 167.732 83.7183 167.75L83.7436 167.759L83.7676 167.768L83.8156 167.787L83.8432 167.8L83.8685 167.812C83.8841 167.82 83.8985 167.828 83.9129 167.836L83.9621 167.866L83.9994 167.893L84.0234 167.911C84.0477 167.929 84.0709 167.949 84.093 167.97L84.1123 167.989C84.1195 167.989 84.1243 168.003 84.1315 168.009L84.1663 168.049C84.275 168.179 84.3341 168.343 84.3332 168.512Z" fill="#FFB93E"/>
<path d="M64.8415 171.401H43.576C43.3628 171.406 43.1558 171.33 42.9969 171.188C42.8379 171.047 42.7388 170.85 42.7197 170.639C42.7197 170.626 42.7197 170.611 42.7197 170.598V168.512C42.7197 168.499 42.7197 168.485 42.7197 168.472C42.7388 168.26 42.8379 168.064 42.9969 167.922C43.1558 167.781 43.3628 167.705 43.576 167.709H62.2294C62.2378 167.739 62.2474 167.769 62.2558 167.8C62.6653 169.266 63.5809 170.542 64.8415 171.401Z" fill="#FFA412"/>
<path d="M79.504 167.709H79.0525V171.402H79.504V167.709Z" fill="#FFA412"/>
<path d="M77.9776 167.709H77.5261V171.402H77.9776V167.709Z" fill="#FFA412"/>
<path d="M76.1461 167.709H75.6946V171.402H76.1461V167.709Z" fill="#FFA412"/>
<path d="M73.3396 167.709H72.888V171.402H73.3396V167.709Z" fill="#FFA412"/>
<path d="M70.3707 167.709H69.9192V171.402H70.3707V167.709Z" fill="#FFA412"/>
<path d="M65.8201 167.709H65.3686V171.402H65.8201V167.709Z" fill="#FFA412"/>
<path d="M61.5591 167.709H61.1076V171.402H61.5591V167.709Z" fill="#FFA412"/>
<path d="M57.7557 167.709H57.3041V171.402H57.7557V167.709Z" fill="#FFA412"/>
<path d="M80.9585 167.709H80.5069V171.402H80.9585V167.709Z" fill="#FFA412"/>
<path d="M81.9179 167.709H81.4664V171.402H81.9179V167.709Z" fill="#FFA412"/>
<path d="M82.8451 167.709H82.3936V171.402H82.8451V167.709Z" fill="#FFA412"/>
<path d="M83.5429 167.723V171.389C83.4869 171.398 83.4303 171.402 83.3736 171.401H83.0914V167.71H83.3736C83.4303 167.709 83.487 167.713 83.5429 167.723Z" fill="#FFA412"/>
<path d="M84.1686 168.064V171.047C84.0505 171.188 83.8941 171.292 83.7182 171.347V167.757C83.8949 167.814 84.0513 167.92 84.1686 168.064Z" fill="#FFA412"/>
<path d="M86.3844 164.912V166.996C86.3834 167.16 86.3253 167.319 86.2198 167.445C86.1019 167.586 85.9456 167.691 85.7695 167.746C85.7119 167.765 85.6529 167.779 85.5929 167.787C85.5369 167.796 85.4803 167.8 85.4236 167.8H45.7304C45.578 167.801 45.427 167.77 45.2873 167.709C45.1535 167.657 45.0358 167.571 44.9458 167.46C44.8558 167.348 44.7967 167.215 44.7744 167.074C44.7733 167.062 44.7733 167.05 44.7744 167.038C44.7744 167.025 44.7744 167.011 44.7744 166.996V164.912C44.7744 164.897 44.7744 164.884 44.7744 164.87C44.8009 164.447 45.2224 164.107 45.7352 164.107H85.4236C85.4803 164.108 85.5369 164.112 85.5929 164.121C85.6529 164.129 85.7119 164.143 85.7695 164.162C85.9457 164.217 86.1022 164.321 86.2198 164.463C86.3253 164.589 86.3834 164.748 86.3844 164.912Z" fill="#FFB93E"/>
<path d="M66.8951 167.8H45.6271C45.4902 167.801 45.3549 167.77 45.232 167.709C45.1079 167.651 45.0007 167.562 44.9206 167.451C44.8406 167.34 44.7903 167.21 44.7744 167.074C44.7733 167.062 44.7733 167.05 44.7744 167.038C44.7744 167.025 44.7744 167.011 44.7744 166.996V164.912C44.7744 164.897 44.7744 164.884 44.7744 164.87C44.7936 164.658 44.8927 164.462 45.0516 164.32C45.2106 164.179 45.4176 164.103 45.6307 164.108H64.2818C64.6647 165.558 65.5413 166.831 66.7618 167.709L66.8951 167.8Z" fill="#FFA412"/>
<path d="M81.5553 164.109H81.1037V167.802H81.5553V164.109Z" fill="#FFA412"/>
<path d="M80.0289 164.109H79.5773V167.802H80.0289V164.109Z" fill="#FFA412"/>
<path d="M78.1974 164.109H77.7458V167.802H78.1974V164.109Z" fill="#FFA412"/>
<path d="M75.3895 164.109H74.938V167.802H75.3895V164.109Z" fill="#FFA412"/>
<path d="M72.422 164.109H71.9704V167.802H72.422V164.109Z" fill="#FFA412"/>
<path d="M67.8715 164.109H67.4199V167.802H67.8715V164.109Z" fill="#FFA412"/>
<path d="M63.6104 164.109H63.1589V167.802H63.6104V164.109Z" fill="#FFA412"/>
<path d="M59.8058 164.109H59.3542V167.802H59.8058V164.109Z" fill="#FFA412"/>
<path d="M83.0086 164.109H82.557V167.802H83.0086V164.109Z" fill="#FFA412"/>
<path d="M83.9693 164.109H83.5178V167.802H83.9693V164.109Z" fill="#FFA412"/>
<path d="M84.8964 164.109H84.4448V167.802H84.8964V164.109Z" fill="#FFA412"/>
<path d="M85.5931 164.121V167.787C85.537 167.796 85.4804 167.8 85.4237 167.8H85.1427V164.107H85.4237C85.4804 164.108 85.537 164.112 85.5931 164.121Z" fill="#FFA412"/>
<path d="M86.2199 164.463V167.445C86.102 167.587 85.9457 167.691 85.7696 167.747V164.157C85.9466 164.213 86.1031 164.319 86.2199 164.463Z" fill="#FFA412"/>
<path d="M87.3357 161.219V163.305C87.3338 163.469 87.2758 163.627 87.1711 163.753C87.0527 163.895 86.8959 163.999 86.7196 164.054C86.6625 164.073 86.6038 164.087 86.5442 164.096C86.4882 164.104 86.4315 164.108 86.3749 164.108H46.6805C46.1689 164.108 45.7473 163.769 45.7197 163.345C45.7197 163.332 45.7197 163.318 45.7197 163.305V161.219C45.7197 161.206 45.7197 161.191 45.7197 161.178C45.7437 160.787 46.1052 160.467 46.5604 160.422C46.598 160.419 46.6357 160.419 46.6733 160.422H86.3749C86.4316 160.422 86.4882 160.426 86.5442 160.435C86.6038 160.443 86.6624 160.457 86.7196 160.476C86.8959 160.53 87.0527 160.635 87.1711 160.776C87.2745 160.901 87.3325 161.057 87.3357 161.219Z" fill="#FFB93E"/>
<path d="M67.8439 164.107H46.5784C46.3653 164.112 46.1583 164.036 45.9993 163.895C45.8403 163.753 45.7412 163.557 45.7221 163.345C45.7221 163.332 45.7221 163.318 45.7221 163.305V161.219C45.7221 161.206 45.7221 161.191 45.7221 161.178C45.7381 160.984 45.8225 160.801 45.9605 160.663C46.0986 160.524 46.2813 160.439 46.4763 160.422C46.5103 160.419 46.5444 160.419 46.5784 160.422H65.2318C65.6303 161.923 66.5574 163.231 67.8439 164.107Z" fill="#FFA412"/>
<path d="M82.5065 160.416H82.0549V164.107H82.5065V160.416Z" fill="#FFA412"/>
<path d="M80.9789 160.416H80.5273V164.107H80.9789V160.416Z" fill="#FFA412"/>
<path d="M79.1474 160.416H78.6958V164.107H79.1474V160.416Z" fill="#FFA412"/>
<path d="M76.3407 160.416H75.8892V164.107H76.3407V160.416Z" fill="#FFA412"/>
<path d="M73.3732 160.416H72.9216V164.107H73.3732V160.416Z" fill="#FFA412"/>
<path d="M68.8214 160.416H68.3698V164.107H68.8214V160.416Z" fill="#FFA412"/>
<path d="M64.5616 160.416H64.11V164.107H64.5616V160.416Z" fill="#FFA412"/>
<path d="M60.7569 160.416H60.3054V164.107H60.7569V160.416Z" fill="#FFA412"/>
<path d="M83.9596 160.416H83.5081V164.107H83.9596V160.416Z" fill="#FFA412"/>
<path d="M84.9204 160.416H84.4688V164.107H84.9204V160.416Z" fill="#FFA412"/>
<path d="M85.8475 160.416H85.3959V164.107H85.8475V160.416Z" fill="#FFA412"/>
<path d="M86.5442 160.429V164.094C86.4882 164.104 86.4315 164.108 86.3748 164.107H86.0926V160.416H86.3748C86.4315 160.415 86.4882 160.42 86.5442 160.429Z" fill="#FFA412"/>
<path d="M87.171 160.77V163.753C87.0526 163.895 86.8958 163.999 86.7194 164.054V160.464C86.8965 160.52 87.0534 160.626 87.171 160.77Z" fill="#FFA412"/>
<path d="M84.4172 157.533V159.618C84.4154 159.782 84.3573 159.94 84.2527 160.066C84.1348 160.208 83.9779 160.313 83.8011 160.367C83.744 160.386 83.6854 160.4 83.6258 160.409L83.5705 160.416H83.5393H83.5081H43.7561C43.2444 160.416 42.8229 160.076 42.7953 159.654C42.7953 159.639 42.7953 159.626 42.7953 159.612V157.527C42.7953 157.513 42.7953 157.5 42.7953 157.485C42.7946 157.474 42.7946 157.463 42.7953 157.452C42.8337 157.112 43.1291 156.831 43.5159 156.748H43.5459C43.614 156.736 43.6832 156.729 43.7524 156.729H83.4564H83.5429H83.5813H83.6258C83.6853 156.737 83.744 156.751 83.8011 156.77C83.9776 156.825 84.1344 156.929 84.2527 157.071C84.3602 157.201 84.4184 157.365 84.4172 157.533Z" fill="#FFB93E"/>
<path d="M64.9256 160.422H43.6601C43.4469 160.427 43.2399 160.35 43.081 160.209C42.922 160.067 42.8229 159.871 42.8038 159.659C42.8038 159.645 42.8038 159.632 42.8038 159.618V157.533C42.8038 157.519 42.8038 157.506 42.8038 157.491C42.8031 157.48 42.8031 157.469 42.8038 157.458C42.8253 157.285 42.9012 157.123 43.0208 156.996C43.1403 156.868 43.2973 156.782 43.4691 156.749L43.5051 156.742C43.5555 156.733 43.6065 156.729 43.6576 156.729H62.3135L62.3207 156.755C62.7207 158.245 63.6415 159.543 64.9172 160.416L64.9256 160.422Z" fill="#FFA412"/>
<path d="M79.5882 156.729H79.1366V160.422H79.5882V156.729Z" fill="#FFA412"/>
<path d="M78.0605 156.729H77.6089V160.422H78.0605V156.729Z" fill="#FFA412"/>
<path d="M76.229 156.729H75.7775V160.422H76.229V156.729Z" fill="#FFA412"/>
<path d="M73.4224 156.729H72.9708V160.422H73.4224V156.729Z" fill="#FFA412"/>
<path d="M70.4548 156.729H70.0032V160.422H70.4548V156.729Z" fill="#FFA412"/>
<path d="M65.9043 156.729H65.4528V160.422H65.9043V156.729Z" fill="#FFA412"/>
<path d="M61.6433 156.729H61.1917V160.422H61.6433V156.729Z" fill="#FFA412"/>
<path d="M57.8386 156.729H57.3871V160.422H57.8386V156.729Z" fill="#FFA412"/>
<path d="M81.0412 156.729H80.5897V160.422H81.0412V156.729Z" fill="#FFA412"/>
<path d="M82.002 156.729H81.5505V160.422H82.002V156.729Z" fill="#FFA412"/>
<path d="M82.9292 156.729H82.4777V160.422H82.9292V156.729Z" fill="#FFA412"/>
<path d="M83.6257 156.742V160.409C83.5697 160.417 83.5131 160.422 83.4564 160.422H83.1741V156.729H83.4564C83.5131 156.729 83.5697 156.733 83.6257 156.742Z" fill="#FFA412"/>
<path d="M84.2527 157.084V160.066C84.1349 160.208 83.9779 160.313 83.8011 160.367V156.777C83.9784 156.834 84.1353 156.94 84.2527 157.084Z" fill="#FFA412"/>
<path d="M84.3332 153.866V155.951C84.3322 156.115 84.2741 156.274 84.1686 156.4C84.0507 156.541 83.8944 156.646 83.7183 156.701C83.6735 156.716 83.6277 156.728 83.5814 156.736H83.5441C83.4881 156.745 83.4315 156.749 83.3748 156.749H43.6792C43.639 156.749 43.5989 156.747 43.5591 156.742L43.511 156.736C43.0799 156.67 42.746 156.361 42.7232 155.987C42.7232 155.973 42.7232 155.959 42.7232 155.945V153.86C42.7232 153.846 42.7232 153.833 42.7232 153.819C42.7496 153.396 43.1712 153.056 43.684 153.056H83.3736C83.3984 153.056 83.4236 153.056 83.4493 153.056H83.4817H83.5177H83.5429C83.6025 153.065 83.6611 153.079 83.7183 153.098L83.7435 153.107L83.7675 153.115L83.8156 153.135L83.8684 153.159L83.9128 153.183L83.9621 153.214L83.9993 153.239C84.0078 153.245 84.0158 153.251 84.0233 153.257C84.0479 153.276 84.0711 153.296 84.093 153.317L84.1122 153.336L84.1314 153.355C84.1434 153.369 84.1554 153.382 84.1662 153.396C84.2774 153.527 84.3367 153.695 84.3332 153.866Z" fill="#FFB93E"/>
<path d="M64.8415 156.759H43.5255H43.4715C43.277 156.741 43.0952 156.655 42.9577 156.517C42.8203 156.379 42.736 156.197 42.7197 156.003C42.7197 155.988 42.7197 155.975 42.7197 155.961V153.876C42.7197 153.862 42.7197 153.849 42.7197 153.834C42.7388 153.623 42.8379 153.426 42.9969 153.285C43.1558 153.143 43.3628 153.067 43.576 153.072H62.2294C62.2378 153.103 62.2474 153.133 62.2558 153.164C62.6613 154.615 63.5627 155.879 64.8043 156.739L64.8415 156.759Z" fill="#FFA412"/>
<path d="M79.504 153.063H79.0525V156.755H79.504V153.063Z" fill="#FFA412"/>
<path d="M77.9776 153.063H77.5261V156.755H77.9776V153.063Z" fill="#FFA412"/>
<path d="M76.1461 153.063H75.6946V156.755H76.1461V153.063Z" fill="#FFA412"/>
<path d="M73.3396 153.063H72.888V156.755H73.3396V153.063Z" fill="#FFA412"/>
<path d="M70.3707 153.063H69.9192V156.755H70.3707V153.063Z" fill="#FFA412"/>
<path d="M65.8201 153.063H65.3686V156.755H65.8201V153.063Z" fill="#FFA412"/>
<path d="M61.5591 153.063H61.1076V156.755H61.5591V153.063Z" fill="#FFA412"/>
<path d="M57.7557 153.063H57.3041V156.755H57.7557V153.063Z" fill="#FFA412"/>
<path d="M80.9585 153.063H80.5069V156.755H80.9585V153.063Z" fill="#FFA412"/>
<path d="M81.9179 153.063H81.4664V156.755H81.9179V153.063Z" fill="#FFA412"/>
<path d="M82.8451 153.063H82.3936V156.755H82.8451V153.063Z" fill="#FFA412"/>
<path d="M83.5429 153.075V156.742C83.4869 156.751 83.4303 156.755 83.3736 156.755H83.0914V153.063H83.3736C83.4303 153.063 83.4869 153.067 83.5429 153.075Z" fill="#FFA412"/>
<path d="M84.1686 153.418V156.4C84.0506 156.541 83.8943 156.646 83.7182 156.701V153.111C83.8949 153.168 84.0513 153.274 84.1686 153.418Z" fill="#FFA412"/>
<path d="M86.3844 150.266V152.35C86.3834 152.514 86.3253 152.673 86.2198 152.799C86.1018 152.94 85.9454 153.044 85.7695 153.099C85.712 153.118 85.6529 153.132 85.5929 153.141C85.5369 153.15 85.4803 153.154 85.4236 153.154H45.7305C45.5779 153.155 45.427 153.123 45.2873 153.062C45.1536 153.011 45.0358 152.925 44.9458 152.813C44.8558 152.702 44.7967 152.569 44.7745 152.428C44.7732 152.416 44.7732 152.403 44.7745 152.391C44.7745 152.378 44.7745 152.365 44.7745 152.35V150.266C44.7745 150.251 44.7745 150.237 44.7745 150.224C44.8009 149.801 45.2225 149.461 45.7353 149.461H85.4236C85.4803 149.462 85.5369 149.466 85.5929 149.475C85.6529 149.483 85.7119 149.497 85.7695 149.515C85.9456 149.571 86.1019 149.675 86.2198 149.817C86.3253 149.943 86.3834 150.102 86.3844 150.266Z" fill="#FFB93E"/>
<path d="M66.8951 153.155H45.6272C45.4901 153.155 45.3549 153.123 45.2321 153.062C45.1079 153.004 45.0007 152.916 44.9207 152.805C44.8406 152.694 44.7903 152.564 44.7745 152.428C44.7732 152.416 44.7732 152.403 44.7745 152.391C44.7745 152.378 44.7745 152.365 44.7745 152.35V150.266C44.7745 150.251 44.7745 150.237 44.7745 150.224C44.7936 150.012 44.8927 149.816 45.0517 149.674C45.2107 149.533 45.4177 149.457 45.6308 149.462H64.2818C64.6652 150.912 65.5417 152.185 66.7618 153.062L66.8951 153.155Z" fill="#FFA412"/>
<path d="M81.5553 149.461H81.1037V153.154H81.5553V149.461Z" fill="#FFA412"/>
<path d="M80.0289 149.461H79.5773V153.154H80.0289V149.461Z" fill="#FFA412"/>
<path d="M78.1974 149.461H77.7458V153.154H78.1974V149.461Z" fill="#FFA412"/>
<path d="M75.3895 149.461H74.938V153.154H75.3895V149.461Z" fill="#FFA412"/>
<path d="M72.422 149.461H71.9704V153.154H72.422V149.461Z" fill="#FFA412"/>
<path d="M67.8715 149.461H67.4199V153.154H67.8715V149.461Z" fill="#FFA412"/>
<path d="M63.6104 149.461H63.1589V153.154H63.6104V149.461Z" fill="#FFA412"/>
<path d="M59.8058 149.461H59.3542V153.154H59.8058V149.461Z" fill="#FFA412"/>
<path d="M83.0086 149.461H82.557V153.154H83.0086V149.461Z" fill="#FFA412"/>
<path d="M83.9693 149.461H83.5178V153.154H83.9693V149.461Z" fill="#FFA412"/>
<path d="M84.8964 149.461H84.4448V153.154H84.8964V149.461Z" fill="#FFA412"/>
<path d="M85.5931 149.475V153.141C85.537 153.15 85.4804 153.154 85.4237 153.154H85.1427V149.459H85.4237C85.4805 149.46 85.5371 149.465 85.5931 149.475Z" fill="#FFA412"/>
<path d="M86.2199 149.818V152.8C86.1023 152.942 85.9458 153.046 85.7696 153.1V149.51C85.9464 149.567 86.1028 149.674 86.2199 149.818Z" fill="#FFA412"/>
<path d="M89.6282 146.573V148.657C89.6273 148.821 89.5691 148.98 89.4637 149.106C89.3458 149.248 89.1894 149.352 89.0133 149.408C88.9558 149.426 88.8967 149.44 88.8368 149.448C88.7808 149.457 88.7241 149.461 88.6674 149.461H48.9743C48.4627 149.461 48.0411 149.122 48.0135 148.699C48.0135 148.685 48.0135 148.672 48.0135 148.657V146.573C48.0135 146.558 48.0135 146.545 48.0135 146.531C48.0375 146.141 48.4002 145.82 48.8542 145.775C48.8914 145.775 48.9298 145.775 48.9683 145.775H88.6674C88.7241 145.775 88.7808 145.779 88.8368 145.788C88.8967 145.797 88.9558 145.811 89.0133 145.83C89.1896 145.884 89.3461 145.988 89.4637 146.13C89.5678 146.254 89.6259 146.411 89.6282 146.573Z" fill="#FFB93E"/>
<path d="M70.1376 149.459H48.8709C48.6578 149.464 48.4508 149.388 48.2918 149.246C48.1329 149.105 48.0338 148.908 48.0146 148.697C48.0146 148.683 48.0146 148.669 48.0146 148.655V146.57C48.0146 146.556 48.0146 146.543 48.0146 146.529C48.0311 146.334 48.1159 146.152 48.2541 146.013C48.3922 145.875 48.575 145.79 48.7701 145.772C48.8037 145.77 48.8373 145.77 48.8709 145.772H67.5243C67.9235 147.274 68.851 148.582 70.1376 149.459Z" fill="#FFA412"/>
<path d="M84.799 145.77H84.3475V149.463H84.799V145.77Z" fill="#FFA412"/>
<path d="M83.2727 145.77H82.8211V149.463H83.2727V145.77Z" fill="#FFA412"/>
<path d="M81.4413 145.77H80.9897V149.463H81.4413V145.77Z" fill="#FFA412"/>
<path d="M78.6346 145.77H78.183V149.463H78.6346V145.77Z" fill="#FFA412"/>
<path d="M75.6658 145.77H75.2142V149.463H75.6658V145.77Z" fill="#FFA412"/>
<path d="M71.1153 145.77H70.6638V149.463H71.1153V145.77Z" fill="#FFA412"/>
<path d="M66.8543 145.77H66.4028V149.463H66.8543V145.77Z" fill="#FFA412"/>
<path d="M63.0496 145.77H62.598V149.463H63.0496V145.77Z" fill="#FFA412"/>
<path d="M86.2536 145.77H85.802V149.463H86.2536V145.77Z" fill="#FFA412"/>
<path d="M87.2132 145.77H86.7616V149.463H87.2132V145.77Z" fill="#FFA412"/>
<path d="M88.1402 145.77H87.6886V149.463H88.1402V145.77Z" fill="#FFA412"/>
<path d="M88.8379 145.782V149.448C88.7815 149.457 88.7245 149.461 88.6674 149.461H88.3925V145.768H88.6734C88.7285 145.769 88.7835 145.773 88.8379 145.782Z" fill="#FFA412"/>
<path d="M89.4638 146.124V149.106C89.3459 149.248 89.1895 149.352 89.0134 149.408V145.818C89.1904 145.874 89.347 145.98 89.4638 146.124Z" fill="#FFA412"/>
<path d="M84.4172 142.886V144.972C84.4153 145.136 84.3573 145.294 84.2526 145.42C84.1342 145.562 83.9774 145.666 83.8011 145.721C83.7441 145.74 83.6854 145.754 83.6257 145.761C83.6075 145.765 83.589 145.767 83.5705 145.769H83.526H83.5032H43.762C43.2504 145.769 42.8289 145.43 42.8013 145.006C42.8013 144.993 42.8013 144.979 42.8013 144.966V142.88C42.8013 142.867 42.8013 142.852 42.8013 142.839C42.8265 142.416 43.248 142.077 43.762 142.077H83.514C83.5537 142.077 83.5933 142.083 83.6341 142.088C83.6937 142.096 83.7524 142.11 83.8095 142.13C83.838 142.138 83.8661 142.149 83.8935 142.161L83.9428 142.182C83.9597 142.19 83.9761 142.198 83.992 142.207C83.992 142.207 83.992 142.207 83.9992 142.207C84.0145 142.215 84.029 142.224 84.0425 142.234C84.0762 142.254 84.1083 142.278 84.1385 142.303L84.165 142.326L84.1818 142.341L84.2094 142.371L84.2478 142.414C84.3592 142.546 84.4193 142.714 84.4172 142.886Z" fill="#FFB93E"/>
<path d="M64.9255 145.775H43.66C43.4469 145.779 43.2399 145.703 43.0809 145.562C42.9219 145.42 42.8228 145.224 42.8037 145.012C42.8037 144.999 42.8037 144.985 42.8037 144.972V142.886C42.8037 142.873 42.8037 142.858 42.8037 142.845C42.8228 142.634 42.9219 142.437 43.0809 142.296C43.2399 142.154 43.4469 142.078 43.66 142.083H62.3134C62.3206 142.11 62.329 142.139 62.3386 142.168C62.7452 143.633 63.6585 144.909 64.9171 145.769L64.9255 145.775Z" fill="#FFA412"/>
<path d="M79.5882 142.083H79.1366V145.776H79.5882V142.083Z" fill="#FFA412"/>
<path d="M78.0605 142.083H77.6089V145.776H78.0605V142.083Z" fill="#FFA412"/>
<path d="M76.229 142.083H75.7775V145.776H76.229V142.083Z" fill="#FFA412"/>
<path d="M73.4224 142.083H72.9708V145.776H73.4224V142.083Z" fill="#FFA412"/>
<path d="M70.4548 142.083H70.0032V145.776H70.4548V142.083Z" fill="#FFA412"/>
<path d="M65.9043 142.083H65.4528V145.776H65.9043V142.083Z" fill="#FFA412"/>
<path d="M61.6433 142.083H61.1917V145.776H61.6433V142.083Z" fill="#FFA412"/>
<path d="M57.8386 142.083H57.3871V145.776H57.8386V142.083Z" fill="#FFA412"/>
<path d="M81.0412 142.083H80.5897V145.776H81.0412V142.083Z" fill="#FFA412"/>
<path d="M82.002 142.083H81.5505V145.776H82.002V142.083Z" fill="#FFA412"/>
<path d="M82.9292 142.083H82.4777V145.776H82.9292V142.083Z" fill="#FFA412"/>
<path d="M83.6257 142.095V145.761C83.5697 145.77 83.5131 145.774 83.4564 145.774H83.1741V142.083H83.4564C83.513 142.083 83.5696 142.087 83.6257 142.095Z" fill="#FFA412"/>
<path d="M84.2527 142.437V145.42C84.1343 145.562 83.9775 145.666 83.8011 145.721V142.131C83.9782 142.187 84.1351 142.294 84.2527 142.437Z" fill="#FFA412"/>
<path d="M87.3355 139.279V141.364C87.3337 141.528 87.2756 141.686 87.171 141.812C87.0527 141.954 86.8959 142.059 86.7194 142.114C86.6623 142.133 86.6036 142.146 86.5441 142.155C86.488 142.163 86.4314 142.168 86.3747 142.168H46.6804C46.5332 142.168 46.3875 142.139 46.2516 142.083C46.1141 142.032 45.9928 141.945 45.9001 141.832C45.8074 141.718 45.7468 141.582 45.7244 141.438C45.7238 141.427 45.7238 141.416 45.7244 141.406C45.7244 141.391 45.7244 141.378 45.7244 141.364V139.279C45.7244 139.265 45.7244 139.251 45.7244 139.237C45.7484 138.846 46.1099 138.526 46.5651 138.481C46.6023 138.481 46.6395 138.481 46.678 138.481H86.3747C86.4314 138.481 86.488 138.485 86.5441 138.494C86.6037 138.503 86.6623 138.517 86.7194 138.536C86.8962 138.59 87.0531 138.694 87.171 138.836C87.2744 138.961 87.3323 139.117 87.3355 139.279Z" fill="#FFB93E"/>
<path d="M67.8438 142.168H46.5783C46.4459 142.168 46.3151 142.139 46.1952 142.083C46.0675 142.025 45.957 141.935 45.8745 141.822C45.792 141.709 45.7402 141.577 45.7244 141.438C45.7238 141.427 45.7238 141.416 45.7244 141.406C45.7244 141.391 45.7244 141.378 45.7244 141.364V139.279C45.7244 139.265 45.7244 139.252 45.7244 139.237C45.7406 139.043 45.8251 138.86 45.9631 138.722C46.1011 138.584 46.2836 138.498 46.4786 138.481C46.5126 138.479 46.5467 138.479 46.5807 138.481H65.2317C65.6163 139.933 66.4956 141.206 67.7189 142.083C67.7609 142.112 67.8018 142.14 67.8438 142.168Z" fill="#FFA412"/>
<path d="M82.5065 138.476H82.0549V142.169H82.5065V138.476Z" fill="#FFA412"/>
<path d="M80.9789 138.476H80.5273V142.169H80.9789V138.476Z" fill="#FFA412"/>
<path d="M79.1474 138.476H78.6958V142.169H79.1474V138.476Z" fill="#FFA412"/>
<path d="M76.3407 138.476H75.8892V142.169H76.3407V138.476Z" fill="#FFA412"/>
<path d="M73.3732 138.476H72.9216V142.169H73.3732V138.476Z" fill="#FFA412"/>
<path d="M68.8214 138.476H68.3698V142.169H68.8214V138.476Z" fill="#FFA412"/>
<path d="M64.5616 138.476H64.11V142.169H64.5616V138.476Z" fill="#FFA412"/>
<path d="M60.7569 138.476H60.3054V142.169H60.7569V138.476Z" fill="#FFA412"/>
<path d="M83.9596 138.476H83.5081V142.169H83.9596V138.476Z" fill="#FFA412"/>
<path d="M84.9204 138.476H84.4688V142.169H84.9204V138.476Z" fill="#FFA412"/>
<path d="M85.8475 138.476H85.3959V142.169H85.8475V138.476Z" fill="#FFA412"/>
<path d="M86.5442 138.488V142.159C86.4881 142.168 86.4315 142.172 86.3748 142.173H86.0926V138.48H86.3748C86.4314 138.478 86.488 138.481 86.5442 138.488Z" fill="#FFA412"/>
<path d="M87.171 138.83V141.812C87.0527 141.954 86.8959 142.059 86.7194 142.114V138.53C86.8962 138.584 87.0531 138.688 87.171 138.83Z" fill="#FFA412"/>
<path d="M88.5774 135.592V137.678C88.5756 137.842 88.5175 138 88.4129 138.127C88.2948 138.268 88.1385 138.372 87.9625 138.427C87.9053 138.445 87.8467 138.459 87.7872 138.468C87.7685 138.471 87.7497 138.474 87.7307 138.475H87.6995H47.9199C47.4083 138.475 46.9867 138.136 46.9591 137.713C46.9591 137.699 46.9591 137.685 46.9591 137.672V135.586C46.9591 135.573 46.9591 135.559 46.9591 135.545C46.9855 135.122 47.4071 134.783 47.9199 134.783H87.6166C87.6737 134.783 87.7307 134.787 87.7872 134.795C87.8467 134.804 87.9054 134.818 87.9625 134.837C88.1385 134.892 88.2948 134.996 88.4129 135.137C88.5194 135.265 88.5777 135.426 88.5774 135.592Z" fill="#FFB93E"/>
<path d="M69.0856 138.481H47.8201C47.607 138.486 47.4 138.41 47.241 138.268C47.082 138.127 46.9829 137.93 46.9638 137.719C46.9638 137.705 46.9638 137.691 46.9638 137.678V135.592C46.9638 135.579 46.9638 135.565 46.9638 135.551C46.9829 135.34 47.082 135.143 47.241 135.002C47.4 134.86 47.607 134.784 47.8201 134.789H66.4747C66.8709 136.289 67.7945 137.597 69.0772 138.475L69.0856 138.481Z" fill="#FFA412"/>
<path d="M83.7482 134.789H83.2966V138.482H83.7482V134.789Z" fill="#FFA412"/>
<path d="M82.2218 134.789H81.7703V138.482H82.2218V134.789Z" fill="#FFA412"/>
<path d="M80.3904 134.789H79.9388V138.482H80.3904V134.789Z" fill="#FFA412"/>
<path d="M77.5837 134.789H77.1321V138.482H77.5837V134.789Z" fill="#FFA412"/>
<path d="M74.6149 134.789H74.1634V138.482H74.6149V134.789Z" fill="#FFA412"/>
<path d="M70.0645 134.789H69.6129V138.482H70.0645V134.789Z" fill="#FFA412"/>
<path d="M65.8035 134.789H65.3519V138.482H65.8035V134.789Z" fill="#FFA412"/>
<path d="M61.9987 134.789H61.5472V138.482H61.9987V134.789Z" fill="#FFA412"/>
<path d="M85.2027 134.789H84.7512V138.482H85.2027V134.789Z" fill="#FFA412"/>
<path d="M86.1623 134.789H85.7107V138.482H86.1623V134.789Z" fill="#FFA412"/>
<path d="M87.0894 134.789H86.6378V138.482H87.0894V134.789Z" fill="#FFA412"/>
<path d="M87.7921 134.801V138.468C87.7361 138.476 87.6795 138.481 87.6228 138.481H87.3357V134.789H87.618C87.6762 134.789 87.7345 134.793 87.7921 134.801Z" fill="#FFA412"/>
<path d="M88.413 135.143V138.125C88.295 138.267 88.1386 138.372 87.9625 138.427V134.837C88.1392 134.894 88.2957 135 88.413 135.143Z" fill="#FFA412"/>
<path d="M58.0017 169.598C65.3689 162.258 65.3689 150.356 58.0017 143.015C50.6345 135.674 38.69 135.674 31.3228 143.015C23.9557 150.356 23.9557 162.258 31.3228 169.598C38.69 176.939 50.6346 176.939 58.0017 169.598Z" fill="#E2810E"/>
<path d="M56.3559 169.599C63.723 162.258 63.723 150.356 56.3559 143.015C48.9887 135.675 37.0442 135.675 29.677 143.015C22.3098 150.356 22.3098 162.258 29.677 169.599C37.0442 176.939 48.9887 176.939 56.3559 169.599Z" fill="#FFB93E"/>
<path d="M43.0151 173.655C39.0385 173.655 35.1849 172.281 32.1109 169.767C29.0369 167.253 26.9327 163.756 26.1569 159.869C25.381 155.983 25.9815 151.949 27.856 148.455C29.7305 144.96 32.7631 142.221 36.437 140.705C40.1108 139.189 44.1987 138.988 48.0041 140.139C51.8095 141.289 55.0969 143.718 57.3062 147.013C59.5156 150.307 60.5101 154.263 60.1203 158.206C59.7306 162.15 57.9808 165.836 55.1689 168.638C53.5765 170.233 51.6824 171.498 49.5962 172.359C47.51 173.22 45.2732 173.661 43.0151 173.655ZM43.0151 140.423C34.1039 140.423 26.8525 147.649 26.8525 156.528C26.8525 165.407 34.1087 172.633 43.0151 172.633C51.9215 172.633 59.1777 165.408 59.1777 156.528C59.1777 147.647 51.9275 140.423 43.0151 140.423Z" fill="#FFA412"/>
<path d="M45.3822 161.499C45.4274 161.168 45.4136 160.831 45.3414 160.504C45.2654 160.201 45.1208 159.918 44.9187 159.679C44.6758 159.392 44.3926 159.142 44.078 158.937C43.6603 158.662 43.2232 158.418 42.7701 158.207C41.9432 157.809 41.1371 157.37 40.355 156.891C39.6903 156.487 39.0842 155.995 38.5535 155.427C38.0765 154.913 37.7132 154.305 37.4871 153.642C37.2613 152.983 37.2 152.222 37.3033 151.36C37.3774 150.657 37.5961 149.977 37.9458 149.362C38.2787 148.781 38.7309 148.276 39.2729 147.881C39.8496 147.469 40.4954 147.162 41.18 146.976C41.9551 146.766 42.7576 146.674 43.5604 146.703L43.8966 143.88L46.1785 144.15L45.8374 147.012C46.5982 147.195 47.3233 147.503 47.9835 147.922C48.5946 148.304 49.1222 148.805 49.5348 149.395C49.9474 149.986 50.2367 150.652 50.3855 151.356C50.556 152.153 50.588 152.974 50.4803 153.782L46.361 153.295C46.4867 152.239 46.3458 151.422 45.9383 150.843C45.5307 150.263 44.9303 149.928 44.1368 149.835C43.7619 149.782 43.3805 149.798 43.0115 149.883C42.7116 149.953 42.431 150.089 42.19 150.28C41.9652 150.465 41.7847 150.697 41.6616 150.96C41.5296 151.242 41.4448 151.544 41.4106 151.854C41.3708 152.154 41.3834 152.458 41.4479 152.754C41.5195 153.045 41.6581 153.316 41.8526 153.545C42.0986 153.832 42.385 154.081 42.7029 154.287C43.1398 154.575 43.5938 154.836 44.0624 155.069C44.9431 155.522 45.7397 155.973 46.4523 156.423C47.1171 156.831 47.7231 157.328 48.2537 157.899C48.7585 158.437 49.1335 159.082 49.3504 159.785C49.5672 160.489 49.6202 161.233 49.5051 161.96C49.4311 162.676 49.2082 163.369 48.8506 163.994C48.5135 164.57 48.0575 165.068 47.5127 165.455C46.9313 165.86 46.2799 166.155 45.5912 166.325C44.8092 166.521 44.0034 166.606 43.1977 166.578L42.8854 169.202L40.6192 168.934L40.9302 166.323C40.1589 166.153 39.4115 165.889 38.7048 165.538C38.0152 165.199 37.3962 164.733 36.8806 164.165C36.3552 163.575 35.9647 162.879 35.7361 162.124C35.4838 161.326 35.4206 160.4 35.5463 159.346L39.6656 159.833C39.5858 160.364 39.6119 160.906 39.7425 161.427C39.8493 161.83 40.0501 162.202 40.3285 162.512C40.5901 162.796 40.9123 163.017 41.2713 163.16C41.6332 163.305 42.0128 163.401 42.4002 163.446C42.7996 163.502 43.2055 163.491 43.6012 163.414C43.9249 163.351 44.2326 163.223 44.5055 163.039C44.7538 162.869 44.9593 162.643 45.106 162.381C45.2547 162.108 45.3485 161.808 45.3822 161.499Z" fill="#FFA412"/>
<path d="M77.7038 130.496C75.7715 133.846 73.3419 135.139 73.3419 135.139H63.2358C63.2358 135.139 79.1786 127.941 77.7038 130.496Z" fill="#233862"/>
<path d="M69.9419 156.415C69.8211 156.548 69.7411 156.712 69.7115 156.889C69.6819 157.065 69.704 157.247 69.775 157.411C70.0152 158.075 70.8126 158.816 71.7386 159.557C71.8587 159.651 71.962 159.737 72.0532 159.817L72.1241 159.881L72.1781 159.93C73.0404 160.722 72.7162 160.904 74.2666 162.512C76.0332 164.344 77.2498 164.377 77.5957 164.21C77.8887 164.068 77.2942 163.096 76.6349 162.004L76.5388 161.845C76.4512 161.7 76.3635 161.551 76.277 161.407C75.5036 160.09 75.703 159.475 75.8855 157.519C76.0344 155.93 78.3679 148.638 78.3679 148.638L74.9812 148.057C74.9812 148.057 73.9604 153.863 72.8375 154.758C72.237 155.237 71.5632 155.237 70.9868 155.596L70.8667 155.671C70.5265 155.877 70.2155 156.127 69.9419 156.415Z" fill="#FFB27D"/>
<path d="M69.9419 156.415C69.8211 156.548 69.7411 156.712 69.7115 156.889C69.6819 157.065 69.704 157.247 69.775 157.411C70.0704 158.074 70.8475 158.811 71.741 159.549C71.8611 159.646 71.9608 159.735 72.0532 159.817L72.1241 159.881L72.1781 159.93C73.0404 160.722 72.7162 160.904 74.2666 162.512C76.0333 164.344 77.2498 164.377 77.5957 164.21C77.8888 164.068 77.2943 163.096 76.6349 162.004C75.3985 161.523 74.3116 160.725 73.4848 159.691C72.4207 158.338 71.711 156.6 70.9868 155.592L70.8667 155.667C70.5263 155.874 70.2153 156.126 69.9419 156.415Z" fill="#233862"/>
<path d="M97.2495 154.307C97.4597 155.349 98.9489 155.176 100.612 154.77C102.276 154.364 101.88 154.847 104.25 154.585C106.619 154.322 107.338 153.443 107.41 153.092C107.475 152.781 106.304 152.671 105.047 152.526C104.89 152.509 104.732 152.489 104.567 152.47C103.149 152.293 102.111 151.381 100.822 150.633C99.6034 149.923 97.7828 147.035 97.7828 147.035L94.533 147.291C94.533 147.291 96.2383 149.871 96.8977 150.993C97.2856 151.653 97.2651 152.526 97.2171 153.2C97.1787 153.569 97.1896 153.941 97.2495 154.307Z" fill="#FFB27D"/>
<path d="M100.615 154.77C102.279 154.364 101.883 154.847 104.252 154.585C106.622 154.322 107.34 153.443 107.412 153.092C107.477 152.781 106.306 152.671 105.05 152.526L105.039 152.551C104.023 153.2 102.851 153.563 101.645 153.602C100.038 153.64 98.3352 153.182 97.2255 153.2C97.1844 153.568 97.1924 153.941 97.2496 154.307C97.4597 155.349 98.9489 155.176 100.615 154.77Z" fill="#233862"/>
<path d="M84.7979 133.604L81.7595 141.749L77.7963 152.383C77.0883 152.435 76.3765 152.371 75.6898 152.191C74.741 151.918 73.6481 151.203 73.6481 151.203C73.6481 151.203 74.7494 139.785 76.8043 133.23C77.3303 131.547 77.92 130.187 78.5709 129.421C81.7571 125.671 84.7979 133.604 84.7979 133.604Z" fill="#233862"/>
<path d="M81.7089 120.67C79.7189 120.029 74.0431 120.852 68.3409 121.963L67.1472 120.001L54.8325 119.043C54.8325 119.043 50.7684 128.018 52.9938 133.744C53.3204 134.582 54.1299 134.941 55.2372 134.958C55.2372 134.958 62.5859 135.137 64.965 135.137C71.09 135.137 77.9271 130.942 78.811 130.766C80.2594 130.478 80.8382 133.363 82.2854 136.39C83.7326 139.418 95.8936 149.806 95.8936 149.806C95.8936 149.806 97.7635 149.824 98.5357 149.536C99.3668 149.226 99.6706 148.818 99.6706 148.818C99.6706 148.818 86.1969 122.112 81.7089 120.67Z" fill="#2B478B"/>
<path d="M65.8394 83.9668C65.1244 83.5428 64.3027 83.3315 63.4711 83.3577C63.0777 83.364 62.6845 83.338 62.2954 83.2799C57.6284 82.6552 54.8193 89.4128 54.6548 91.4603C54.3498 95.2334 52.3465 95.809 49.5267 98.1724C43.8713 102.911 45.5298 108.418 48.6223 110.463C50.4766 111.691 53.7469 110.463 53.7469 110.463C53.7937 110.496 62.6905 105.508 67.0776 103.103C73.6493 102.17 68.4803 85.5332 65.8394 83.9668Z" fill="#233862"/>
<path d="M63.4003 101.054C63.4195 101.067 61.2386 101.806 59.7866 101.165C58.4163 100.567 57.3846 98.317 57.4003 98.3158C58.0224 98.287 58.7069 97.7437 59.2329 94.1825L59.4984 94.2782L63.9588 95.877C63.9588 95.877 63.6357 97.3034 63.4267 98.6604C63.2502 99.7972 63.1565 100.892 63.4003 101.054Z" fill="#FFB27D"/>
<path d="M63.9588 95.877C63.9588 95.877 63.6357 97.3035 63.4268 98.6605C60.8651 98.2009 59.8599 95.6581 59.4984 94.2783L63.9588 95.877Z" fill="#ED975D"/>
<path d="M64.6228 97.2928C64.6228 97.2928 58.5207 96.4766 59.0887 92.6976C59.6568 88.9185 59.2533 86.2679 63.172 86.6293C67.0908 86.9906 67.6313 88.5439 67.749 89.8531C67.8667 91.1622 66.2249 97.4041 64.6228 97.2928Z" fill="#FFB27D"/>
<path d="M67.528 87.7816C67.528 87.7816 63.6213 91.1323 60.9635 91.4064C58.3058 91.6804 57.3006 90.8272 57.3006 90.8272C58.3609 89.8815 59.2149 88.7288 59.8094 87.4406C59.9448 87.1375 60.1591 86.8759 60.43 86.683C60.7009 86.49 61.0186 86.3727 61.3503 86.3432C63.2478 86.1793 66.8435 86.1051 67.528 87.7816Z" fill="#233862"/>
<path d="M65.0853 87.4812C65.0853 87.4812 66.3932 88.7401 66.8039 89.6747C67.2014 90.5758 67.3203 92.7311 67.0045 93.5867C67.0045 93.5867 69.0462 89.6377 67.8872 87.723C66.6646 85.6922 65.0853 87.4812 65.0853 87.4812Z" fill="#233862"/>
<path d="M68.5381 110.011C68.3544 122.32 68.4877 119.748 67.1366 120.916C66.8111 121.197 65.896 121.365 64.6914 121.444C60.9035 121.694 54.243 121.073 53.992 120.375C53.1177 117.962 53.7349 117.211 53.006 113.517C52.9291 113.123 52.8354 112.699 52.7249 112.235C52.1172 109.697 51.524 108.835 53.6857 104.758C55.6409 101.065 57.6729 98.067 57.8555 98.1758C63.0136 101.227 63.4304 98.6629 63.4304 98.6629C63.4304 98.6629 68.6282 104.007 68.5381 110.011Z" fill="white"/>
<path d="M81.7595 141.749L77.7963 152.383C77.0883 152.435 76.3765 152.371 75.6898 152.191C74.741 151.918 73.6481 151.203 73.6481 151.203C73.6481 151.203 74.7494 139.785 76.8043 133.23L81.7595 141.749Z" fill="#2B478B"/>
<path d="M63.4267 98.6605C63.4267 98.6605 68.735 99.558 69.3583 101.835C69.9816 104.113 73.6493 117.5 73.6493 117.5C73.6493 117.5 70.9508 117.978 69.7042 116.741C68.4576 115.504 65.3663 105.216 65.3663 105.216L63.4267 98.6605Z" fill="white"/>
<path d="M64.6913 121.444C60.9035 121.694 54.2429 121.073 53.9919 120.375C53.1176 117.962 53.7348 117.211 53.0059 113.517L54.8325 108.391C54.8325 108.391 54.5299 114.099 56.2197 115.601C57.9094 117.102 63.1373 118.499 63.9587 119.753C64.3538 120.355 64.6133 120.959 64.6913 121.444Z" fill="#EBF3FF"/>
<path d="M60.351 119.043C60.351 119.043 64.0872 118.214 64.6913 118.544C65.2954 118.875 66.7678 120.078 66.9515 120.497C67.1353 120.916 65.6089 120.179 65.1129 120.046C64.791 119.96 63.9443 120.253 63.5252 120.393C61.7622 120.978 60.6813 120.677 60.6813 120.677L60.351 119.043Z" fill="#FFB27D"/>
<path d="M57.8482 98.1722C57.8482 98.1722 52.8305 98.4798 51.0939 100.895C48.6488 104.292 43.7981 118.774 46.5783 120.706C49.708 122.881 60.8254 121.275 60.8254 121.275C60.8254 121.275 61.1953 119.552 60.6813 118.718C60.1673 117.884 51.8013 116.538 51.4158 116.153C51.0303 115.769 56.2413 108.651 56.2413 107.498C56.2413 106.344 57.8482 98.1722 57.8482 98.1722Z" fill="white"/>
<path d="M64.8715 119.581C64.8715 119.581 65.6545 120.587 65.9115 120.707C66.0407 120.777 66.1875 120.808 66.3342 120.798L65.8058 119.851L64.8715 119.581Z" fill="#FFB27D"/>
<path d="M64.6913 118.544L66.9732 119.645C66.9285 119.7 66.8702 119.742 66.8041 119.768C66.7379 119.794 66.6663 119.802 66.5961 119.791C66.3163 119.778 65.6089 119.521 65.6089 119.521L64.6913 118.544Z" fill="#FFB27D"/>
<path d="M65.9114 122.249H83.9188L89.3363 108.828H71.3566L65.9114 122.249Z" fill="#F99746"/>
<path d="M84.1301 121.726H60.351V122.249H83.9188L84.1301 121.726Z" fill="#ED7D2B"/>
<path d="M79.3732 115.537C79.509 115.066 79.2351 114.684 78.7619 114.684C78.5127 114.697 78.2736 114.786 78.0764 114.939C77.8792 115.091 77.7333 115.3 77.6582 115.537C77.5225 116.016 77.7963 116.391 78.2695 116.391C78.5189 116.378 78.7582 116.289 78.9554 116.136C79.1526 115.983 79.2984 115.774 79.3732 115.537Z" fill="white"/>
<path d="M169.243 123.534C169.243 123.463 169.64 115.324 165.694 113.451L165.973 113.186C167.774 113.814 169.783 115.758 170.586 118.504C171.186 120.538 170.729 120.991 170.731 121.068L169.243 123.534Z" fill="#A4C8FC"/>
<path d="M158.939 107.414C158.939 107.414 158.488 111.603 160.688 113.382C162.889 115.162 166.908 113.861 166.908 113.861C166.908 113.861 167.36 109.672 165.158 107.894C162.957 106.116 158.939 107.414 158.939 107.414Z" fill="#A4C8FC"/>
<path d="M168.569 138.8C168.495 138.391 167.071 128.807 170.712 118.126C174.21 107.863 172.273 99.1621 172.257 99.0759H174.832C174.898 99.4469 175.072 107.988 172.335 119.692C169.868 130.223 174.475 138.8 173.494 138.8H168.569Z" fill="#A4C8FC"/>
<path d="M173.975 110.505C173.988 110.451 175.217 103.428 178.522 102.63C177.044 102.821 175.167 103.875 174.118 105.838C173.337 107.297 173.61 107.71 173.595 107.768L173.975 110.505Z" fill="#A4C8FC"/>
<path d="M160.747 91.8791C160.747 91.8791 157.181 86.8638 153.133 85.3907C153.133 85.3907 154.646 97.1552 152.433 97.3012C150.219 97.4472 151.694 84.0708 151.694 84.0708C151.694 84.0708 141.146 78.2359 136.863 78.3974C136.863 78.3974 142.927 90.1523 140.745 89.7502C138.563 89.3481 131.682 77.4078 131.682 77.4078C131.682 77.4078 120.676 74.7057 118.503 81.1713C116.331 87.6369 119.023 91.0917 120.647 91.5991C122.271 92.1064 132.858 92.5863 132.503 93.9397C132.147 95.2932 124.875 97.0654 120.964 95.6007C120.964 95.6007 124.724 106.672 130.526 106.462C136.328 106.251 138.324 102.795 141.912 102.73C145.501 102.666 148.054 103.776 146.212 104.63C144.37 105.483 138.362 104.487 135.333 106.762C132.305 109.037 129.881 110.407 135.174 111.816C140.466 113.224 148.458 111.634 152.249 109.116C152.26 109.109 155.354 108.863 157.789 123.132C158.728 128.637 158.005 136.794 158.005 136.794L159.97 136.494C161.061 120.501 155.267 107.204 155.267 107.204C155.267 107.204 165.096 99.9626 160.747 91.8791Z" fill="#A4C8FC"/>
<path d="M192.892 112.988C192.892 112.988 181.049 108.03 185.288 99.0099C185.288 99.0099 188.858 93.3628 193.161 91.5295C193.161 91.5295 192.214 104.373 194.623 104.401C197.032 104.428 194.643 90.0134 194.643 90.0134C194.643 90.0134 205.735 83.0727 210.389 82.9925C210.389 82.9925 204.504 96.0936 206.85 95.53C209.195 94.9664 215.947 81.6164 215.947 81.6164C215.947 81.6164 227.723 78.0407 230.46 84.924C233.197 91.8072 230.482 95.7119 228.751 96.3557C227.019 96.9995 215.569 98.1423 216.034 99.5867C216.498 101.031 224.49 102.529 228.644 100.712C228.644 100.712 225.22 112.936 218.916 113.048C212.612 113.16 210.245 109.53 206.351 109.67C202.458 109.81 199.753 111.163 201.801 111.981C203.849 112.798 210.304 111.365 213.722 113.656C217.14 115.946 219.847 117.288 214.192 119.125C208.538 120.962 198.058 121.398 195.474 117.191L192.892 112.988Z" fill="#D2E3FC"/>
<path d="M225.218 87.7637C225.218 87.7637 195.178 101.342 192.892 112.988C192.892 112.988 193.613 118.002 191.15 124.125L191.401 126.343C191.401 126.343 193.811 118.43 195.474 117.193C195.474 117.193 187.387 108.215 225.218 87.7637Z" fill="#A4C8FC"/>
<path d="M191.15 124.124C191.15 124.124 187.167 131.943 190.909 140.491L192.11 140.021C192.11 140.021 189.801 130.4 191.76 125.21C193.719 120.02 191.15 124.124 191.15 124.124Z" fill="#A4C8FC"/>
<path d="M147.739 59.2805C152.592 64.4262 150.068 74.6469 150.068 74.6469C150.068 74.6469 139.672 76.5233 134.816 71.3776C129.959 66.232 132.487 56.01 132.487 56.01C132.487 56.01 142.885 54.1337 147.739 59.2805Z" fill="#A4C8FC"/>
<path d="M147.739 59.2805C152.593 64.4262 150.068 74.6469 150.068 74.6469L132.491 56.01C132.491 56.01 142.885 54.1337 147.739 59.2805Z" fill="#D2E3FC"/>
<path d="M210.336 78.8832C207.803 81.8067 202.081 81.0205 202.081 81.0205C202.081 81.0205 200.464 75.4931 202.997 72.5696C205.53 69.6461 211.251 70.4324 211.251 70.4324C211.251 70.4324 212.869 75.9598 210.336 78.8832Z" fill="#A4C8FC"/>
<path d="M180.4 104.602C178.701 105.071 176.737 103.336 176.737 103.336C176.737 103.336 177.525 100.84 179.221 100.371C180.918 99.9015 182.886 101.637 182.886 101.637C182.886 101.637 182.098 104.133 180.4 104.602Z" fill="#A4C8FC"/>
<path d="M150.416 49.7359C151.58 52.4882 149.071 56.1656 149.071 56.1656C149.071 56.1656 144.676 55.3866 143.512 52.6366C142.348 49.8867 144.857 46.2057 144.857 46.2057C144.857 46.2057 149.253 46.9859 150.416 49.7359Z" fill="#A4C8FC"/>
<path d="M192.104 91.2327C202.218 81.1543 202.218 64.814 192.104 54.7356C181.989 44.6572 165.59 44.6572 155.475 54.7356C145.361 64.814 145.361 81.1543 155.475 91.2327C165.59 101.311 181.989 101.311 192.104 91.2327Z" fill="#E2810E"/>
<path d="M189.862 91.5134C199.977 81.435 199.977 65.0947 189.862 55.0163C179.748 44.9379 163.349 44.9379 153.234 55.0163C143.119 65.0947 143.119 81.4351 153.234 91.5135C163.349 101.592 179.748 101.592 189.862 91.5134Z" fill="#FFB93E"/>
<path d="M174.533 96.8967C169.116 97.5767 163.629 96.364 159.009 93.4652C154.388 90.5664 150.92 86.1609 149.193 80.9993C147.467 75.8378 147.591 70.2395 149.543 65.1585C151.495 60.0775 155.154 55.8281 159.898 53.1343C164.642 50.4406 170.177 49.4692 175.559 50.3856C180.941 51.3021 185.838 54.0498 189.414 58.1604C192.991 62.271 195.027 67.4903 195.175 72.9288C195.323 78.3674 193.573 83.6888 190.225 87.9863C188.331 90.4315 185.968 92.4781 183.275 94.0076C180.581 95.5371 177.61 96.519 174.533 96.8967ZM168.813 51.6291C156.674 53.1524 148.036 64.2336 149.569 76.3295C151.101 88.4255 162.217 97.0319 174.358 95.505C186.498 93.978 195.134 82.9016 193.602 70.8057C192.07 58.7098 180.953 50.1069 168.813 51.6291Z" fill="#FFA412"/>
<path d="M175.665 79.9326C175.67 79.4736 175.593 79.0173 175.438 78.5852C175.281 78.1839 175.035 77.8237 174.717 77.5321C174.335 77.1839 173.905 76.8921 173.44 76.6657C172.824 76.3634 172.187 76.1059 171.533 75.8951C170.338 75.4922 169.164 75.0289 168.016 74.5069C167.039 74.0707 166.127 73.5034 165.305 72.8208C164.567 72.2021 163.967 71.4361 163.544 70.5723C163.124 69.7123 162.91 68.6863 162.902 67.4944C162.882 66.5244 163.063 65.5607 163.433 64.6631C163.79 63.8171 164.322 63.0554 164.994 62.4277C165.709 61.7683 166.536 61.2415 167.437 60.8721C168.456 60.4532 169.534 60.1906 170.632 60.093L170.605 56.1895L173.757 56.168L173.786 60.1254C174.854 60.2453 175.894 60.5396 176.866 60.9965C177.763 61.414 178.568 62.0068 179.232 62.7398C179.895 63.4728 180.404 64.3311 180.729 65.2638C181.097 66.3211 181.282 67.4332 181.274 68.5523L175.58 68.593C175.57 67.1338 175.237 66.0449 174.581 65.3261C173.926 64.6073 173.053 64.2519 171.963 64.2598C171.443 64.2512 170.926 64.3384 170.438 64.5171C170.042 64.6647 169.683 64.8976 169.388 65.1992C169.114 65.4888 168.909 65.836 168.788 66.2152C168.657 66.6223 168.593 67.0479 168.599 67.4753C168.597 67.891 168.667 68.304 168.806 68.6959C168.953 69.0802 169.189 69.4251 169.493 69.7035C169.877 70.0525 170.311 70.3443 170.779 70.5699C171.424 70.8871 172.088 71.1668 172.765 71.4075C174.046 71.8719 175.207 72.3505 176.248 72.8435C177.222 73.2874 178.13 73.8606 178.949 74.5476C179.686 75.1711 180.286 75.94 180.71 76.8057C181.129 77.6665 181.343 78.6865 181.352 79.8656C181.375 80.8543 181.191 81.8368 180.812 82.7508C180.452 83.5884 179.919 84.3408 179.247 84.9586C178.527 85.61 177.692 86.1232 176.785 86.4724C175.754 86.8724 174.671 87.1257 173.569 87.2251L173.595 90.8534L170.462 90.8761L170.437 87.2646C169.356 87.1663 168.292 86.9352 167.269 86.5765C166.272 86.2331 165.349 85.7053 164.548 85.0208C163.731 84.3071 163.079 83.4247 162.638 82.4348C162.157 81.3977 161.912 80.1472 161.901 78.6833L167.596 78.6426C167.602 79.5066 167.729 80.2246 167.976 80.7966C168.191 81.3274 168.528 81.8001 168.961 82.1764C169.366 82.5168 169.842 82.7621 170.355 82.8944C170.873 83.0303 171.407 83.0971 171.943 83.093C172.494 83.0989 173.042 83.0148 173.566 82.8441C173.997 82.7031 174.394 82.4767 174.735 82.1788C175.043 81.9042 175.283 81.5621 175.436 81.1795C175.594 80.7828 175.671 80.3591 175.665 79.9326Z" fill="#FFA412"/>
<path d="M194.453 136.309L194.451 136.329L193.936 144.236L192.018 173.588H156.17L154.059 144.638L153.478 136.659L153.452 136.309H194.453Z" fill="#739AF0"/>
<path d="M194.451 136.329L193.935 144.234C191.234 143.297 183.726 141.045 173.952 141.045C161.605 141.045 154.059 144.635 154.059 144.635L153.478 136.657L194.451 136.329Z" fill="#618DD8"/>
<path d="M195.699 140.488H152.153L151.653 135.444H196.253L195.699 140.488Z" fill="#739AF0"/>
<path d="M192.569 175.155H155.4L154.975 173.397H193.041L192.569 175.155Z" fill="#618DD8"/>
<path d="M128.272 158.803C128.238 158.618 127.598 154.307 129.233 149.502C130.806 144.887 129.934 140.972 129.928 140.933H131.086C131.115 141.1 131.195 144.942 129.963 150.207C128.853 154.945 130.924 158.803 130.484 158.803H128.272Z" fill="#A4C8FC"/>
<path d="M130.704 146.075C130.704 146.051 131.262 142.892 132.746 142.533C132.081 142.619 131.237 143.093 130.765 143.975C130.414 144.632 130.537 144.812 130.531 144.843L130.704 146.075Z" fill="#A4C8FC"/>
<path d="M127.956 145.336C127.956 145.336 126.502 142.981 124.727 142.204C124.727 142.204 125.065 147.529 124.066 147.53C123.067 147.531 124.12 141.569 124.12 141.569C124.12 141.569 119.556 138.646 117.628 138.594C117.628 138.594 120.008 144.046 119.04 143.804C118.072 143.561 115.331 138.001 115.331 138.001C115.331 138.001 110.469 136.47 109.306 139.31C108.144 142.15 109.251 143.778 109.965 144.052C110.68 144.326 115.418 144.848 115.218 145.445C115.019 146.043 111.703 146.629 109.991 145.858C109.991 145.858 111.356 150.937 113.967 151.004C116.578 151.071 117.57 149.583 119.186 149.658C120.803 149.732 121.913 150.304 121.061 150.634C120.21 150.964 117.542 150.343 116.117 151.277C114.691 152.21 113.562 152.756 115.898 153.541C118.234 154.326 121.866 153.842 123.641 152.823C123.641 152.823 125.041 152.799 125.72 159.274C125.982 161.77 125.421 165.413 125.421 165.413L126.311 165.335C127.271 158.188 125.051 152.052 125.051 152.052C125.051 152.052 129.673 149.09 127.956 145.336Z" fill="#A4C8FC"/>
<path d="M133.593 143.42C132.829 143.63 131.945 142.85 131.945 142.85C131.945 142.85 132.3 141.727 133.064 141.516C133.827 141.304 134.711 142.085 134.711 142.085C134.711 142.085 134.357 143.209 133.593 143.42Z" fill="#A4C8FC"/>
<path d="M142.379 126.259C139.712 127.999 139.737 132.734 139.737 132.734C139.737 132.734 144.084 134.649 146.751 132.907C149.418 131.164 149.393 126.432 149.393 126.432C149.393 126.432 145.047 124.518 142.379 126.259Z" fill="#A4C8FC"/>
<path d="M142.379 126.259C139.712 127.999 139.737 132.734 139.737 132.734L149.395 126.432C149.395 126.432 145.047 124.518 142.379 126.259Z" fill="#D2E3FC"/>
<path d="M142.22 121.804C141.42 122.881 142.126 124.758 142.126 124.758C142.126 124.758 144.131 124.877 144.93 123.8C145.73 122.723 145.024 120.848 145.024 120.848C145.024 120.848 143.02 120.724 142.22 121.804Z" fill="#A4C8FC"/>
<path d="M138.858 137.407C143.408 132.873 143.408 125.523 138.858 120.989C134.308 116.456 126.932 116.456 122.382 120.989C117.832 125.523 117.832 132.873 122.382 137.407C126.932 141.94 134.308 141.94 138.858 137.407Z" fill="#E2810E"/>
<path d="M130.358 140.921C136.779 140.503 141.645 134.979 141.226 128.581C140.808 122.183 135.263 117.335 128.842 117.752C122.421 118.169 117.556 123.694 117.974 130.091C118.393 136.489 123.937 141.338 130.358 140.921Z" fill="#FFB93E"/>
<path d="M130.955 139.954C128.518 140.26 126.05 139.714 123.972 138.41C121.894 137.107 120.333 135.125 119.557 132.803C118.781 130.482 118.836 127.963 119.714 125.678C120.592 123.393 122.239 121.481 124.372 120.27C126.506 119.058 128.996 118.621 131.416 119.033C133.837 119.446 136.04 120.682 137.649 122.531C139.258 124.38 140.173 126.727 140.24 129.174C140.306 131.62 139.519 134.013 138.013 135.946C137.161 137.046 136.098 137.967 134.887 138.655C133.675 139.343 132.339 139.784 130.955 139.954ZM128.385 119.593C126.426 119.839 124.585 120.658 123.093 121.946C121.602 123.235 120.528 124.936 120.006 126.833C119.485 128.73 119.539 130.739 120.163 132.605C120.788 134.471 121.953 136.111 123.513 137.317C125.072 138.523 126.955 139.241 128.924 139.381C130.894 139.52 132.86 139.075 134.575 138.101C136.29 137.127 137.677 135.668 138.56 133.909C139.443 132.149 139.782 130.169 139.536 128.217C139.202 125.601 137.841 123.224 135.75 121.607C133.66 119.99 131.011 119.266 128.385 119.593Z" fill="#FFA412"/>
<path d="M131.463 132.324C131.465 132.117 131.431 131.912 131.362 131.717C131.292 131.535 131.181 131.372 131.039 131.239C130.867 131.082 130.674 130.951 130.465 130.85C130.187 130.713 129.9 130.597 129.606 130.503C129.069 130.321 128.541 130.112 128.024 129.878C127.585 129.682 127.175 129.427 126.805 129.119C126.473 128.841 126.203 128.497 126.013 128.108C125.646 127.263 125.629 126.308 125.963 125.45C126.123 125.07 126.362 124.727 126.665 124.445C126.986 124.148 127.358 123.91 127.764 123.744C128.223 123.555 128.709 123.436 129.205 123.393L129.192 121.638L130.61 121.627L130.623 123.408C131.103 123.462 131.571 123.594 132.008 123.8C132.412 123.987 132.773 124.253 133.072 124.582C133.37 124.911 133.6 125.296 133.746 125.715C133.911 126.19 133.995 126.69 133.992 127.194L131.43 127.212C131.425 126.556 131.276 126.066 130.981 125.742C130.832 125.581 130.649 125.455 130.445 125.372C130.242 125.29 130.023 125.253 129.803 125.264C129.569 125.261 129.337 125.302 129.117 125.383C128.939 125.449 128.778 125.554 128.645 125.69C128.522 125.82 128.429 125.976 128.374 126.147C128.315 126.33 128.286 126.522 128.289 126.714C128.288 126.901 128.319 127.086 128.381 127.262C128.448 127.435 128.554 127.59 128.691 127.716C128.864 127.873 129.059 128.004 129.27 128.106C129.56 128.248 129.858 128.373 130.163 128.48C130.737 128.69 131.26 128.905 131.732 129.125C132.17 129.325 132.578 129.583 132.947 129.892C133.298 130.183 133.578 130.55 133.765 130.965C133.952 131.379 134.042 131.831 134.028 132.286C134.04 132.73 133.958 133.172 133.788 133.583C133.626 133.962 133.385 134.302 133.082 134.581C132.758 134.874 132.382 135.105 131.974 135.262C131.512 135.441 131.027 135.555 130.533 135.6L130.544 137.233L129.135 137.242L129.123 135.618C128.637 135.574 128.159 135.469 127.699 135.308C127.25 135.154 126.835 134.916 126.475 134.607C126.108 134.286 125.815 133.889 125.616 133.444C125.387 132.911 125.274 132.336 125.285 131.757L127.847 131.739C127.838 132.07 127.896 132.4 128.017 132.709C128.113 132.949 128.265 133.162 128.46 133.33C128.642 133.484 128.856 133.594 129.087 133.653C129.322 133.715 129.565 133.745 129.808 133.743C130.056 133.746 130.302 133.708 130.538 133.631C130.731 133.568 130.91 133.466 131.063 133.332C131.201 133.208 131.31 133.055 131.379 132.883C131.443 132.704 131.472 132.514 131.463 132.324Z" fill="#FFA412"/>
<path d="M139.915 157.682L139.914 157.691L139.682 161.246L138.82 174.45H122.695L121.746 161.428L121.484 157.839L121.473 157.682H139.915Z" fill="#B4C9F7"/>
<path d="M139.914 157.691L139.682 161.246C138.467 160.825 135.091 159.81 130.693 159.81C125.14 159.81 121.744 161.426 121.744 161.426L121.484 157.836L139.914 157.691Z" fill="#9BB8EA"/>
<path d="M140.475 159.561H120.888L120.664 157.293H140.725L140.475 159.561Z" fill="#B4C9F7"/>
<path d="M139.067 175.155H122.349L122.158 174.364H139.28L139.067 175.155Z" fill="#B4C9F7"/>
<path d="M206.355 107.287C206.355 107.287 204.514 106.928 204.094 107.287C203.673 107.646 201.675 109.666 202.103 110.33C202.53 110.995 204.58 109.781 205.006 109.666C205.433 109.551 206.624 109.088 206.624 109.088L206.355 107.287Z" fill="#FFB27D"/>
<path d="M225.922 172.156L227.897 172.889C227.897 172.889 236.47 161.042 237.526 150.615C237.715 148.754 237.646 146.951 237.244 145.285C237.244 145.285 237.328 144.807 237.474 143.969C237.542 143.575 237.626 143.102 237.721 142.559C237.999 140.968 238.384 138.791 238.822 136.311C239.831 130.606 241.137 123.312 242.152 117.951L241.621 117.78L235.871 115.927L234.681 112.163L230.396 111.039C230.396 111.039 229.435 112.905 228.584 121.719C228.425 122.875 228.282 124.15 228.174 125.533C227.78 130.679 227.916 135.852 228.581 140.97C228.778 142.502 229.029 144.081 229.334 145.709C229.56 146.905 229.594 148.523 229.499 150.388C229.062 158.913 225.922 172.156 225.922 172.156Z" fill="#2B478B"/>
<path d="M228.169 125.533L237.474 143.962C237.542 143.568 237.626 143.095 237.721 142.552C237.999 140.96 238.384 138.784 238.822 136.304C239.831 130.598 241.137 123.305 242.152 117.944L241.621 117.773L235.871 115.927L234.681 112.163L230.396 111.039C230.396 111.039 229.435 112.905 228.584 121.719C228.425 122.875 228.278 124.15 228.169 125.533Z" fill="#233862"/>
<path d="M206.355 107.287L206.624 109.088C206.624 109.088 206.744 109.088 206.953 109.073C207.61 109.029 209.209 108.939 211.016 108.746C213.735 108.478 216.962 108.002 218.247 107.213C220.203 106.017 223.411 102.375 225.507 98.7288C225.562 98.6424 225.611 98.5529 225.656 98.4608C226.746 96.5258 227.508 94.6051 227.568 93.0758C227.614 92.2538 227.529 91.4297 227.314 90.6346C227.097 89.8342 226.72 89.0852 226.208 88.4315C226.151 88.3375 226.081 88.2524 225.999 88.179C225.605 87.6933 225.124 87.2833 224.582 86.9692C224.222 86.8208 223.835 86.9991 223.433 87.4311V87.4454C223.022 87.9033 222.675 88.4141 222.401 88.964C222.387 88.9784 222.372 88.9939 222.372 89.0083C222.297 89.1423 222.222 89.2919 222.132 89.4546C222.107 89.4865 222.087 89.522 222.073 89.56C221.909 89.9022 221.745 90.2592 221.58 90.631C219.742 94.6207 217.786 100.664 216.157 102.465C215.456 103.238 212.243 104.756 209.689 105.888C207.849 106.691 206.355 107.287 206.355 107.287Z" fill="#FFB27D"/>
<path d="M225.369 91.0784C226.501 91.6025 227.869 91.9591 229.524 92.0489C235.729 92.3876 237.137 86.9679 237.394 83.3707C236.711 83.1348 235.985 83.0435 235.265 83.1026C234.825 83.1266 234.365 83.172 233.987 83.2223C233.228 82.8274 231.865 80.9079 231.077 77.6985L230.809 77.8182L226.332 79.9147C226.332 79.9147 226.812 81.3663 227.159 82.7556C227.433 83.8434 227.629 84.8928 227.464 85.1872C227.113 85.3296 226.901 85.4194 226.901 85.4194C226.21 87.2527 225.697 89.1477 225.369 91.0784Z" fill="#FFB27D"/>
<path d="M223.816 95.1303C223.863 95.25 223.914 95.3697 223.971 95.4977C225.543 98.8699 228.452 112.839 228.452 112.839C228.037 115.352 247.394 112.346 247.444 110.059C248.125 107.634 245.025 103.739 243.277 101.785C243.058 101.54 242.862 101.277 242.689 100.998C242.255 100.298 241.984 99.5098 241.897 98.6916C241.553 95.4499 241.684 92.4127 241.656 90.565C241.314 90.3125 240.984 90.0864 240.676 89.8578C240.25 89.5656 239.851 89.2356 239.484 88.8718C239.146 88.5128 238.936 88.1538 238.911 87.7505C238.895 87.4364 238.903 87.1215 238.936 86.8087C238.951 86.6591 238.97 86.5107 238.993 86.3611C239.168 85.331 239.47 84.3263 239.891 83.3695C238.226 82.6981 235.266 83.0978 235.266 83.0978C235.266 83.0978 235.266 83.2618 235.266 83.5298C235.276 84.6068 235.266 87.3735 234.92 87.8977C234.487 88.5498 226.555 91.4063 226.136 90.522C225.717 89.6376 226.857 85.5737 226.895 85.4194C224.239 86.4593 223.292 87.334 223.292 87.334C224.897 88.3644 222.579 91.8634 223.816 95.1303Z" fill="#F99746"/>
<path d="M229.158 65.9962C229.169 65.7282 229.377 62.8406 233.791 62.6898C233.791 62.6898 231.62 62.9471 231.245 63.8985C231.245 63.8985 232.724 62.7233 233.927 63.1015C235.13 63.4796 235.839 65.581 235.849 66.2726C235.858 66.9643 235.186 69.1913 234.422 69.384C234.117 69.4456 233.802 69.4456 233.497 69.384C233.715 69.7238 233.913 70.0758 234.09 70.4382C235.851 74.0414 234.035 77.5632 232.544 77.1743C231.583 76.9254 231.316 78.5517 231.316 78.5517L222.023 71.0545C222.023 71.0545 225.434 64.0169 229.158 65.9962Z" fill="#2C3A64"/>
<path d="M226.332 79.9159C226.332 79.9159 226.812 81.3663 227.158 82.7568C229.775 82.0292 230.57 79.2865 230.809 77.8193L226.332 79.9159Z" fill="#ED985F"/>
<path d="M225.783 81.4513C225.783 81.4513 232.044 80.0081 231.082 76.1369C230.12 72.2656 230.28 69.4726 226.241 70.2301C222.202 70.9876 221.797 72.6569 221.797 74.0271C221.797 75.3973 224.127 81.7277 225.783 81.4513Z" fill="#FFB27D"/>
<path d="M221.448 71.8288C222.122 70.4263 222.913 70.5005 223.409 70.7518C226.351 68.0401 229.236 70.2551 229.236 70.2551C230.347 72.9285 232.754 74.021 232.754 74.021C232.754 74.021 231.793 75.0023 229.004 74.9784C228.153 74.9712 227.297 74.5823 226.518 74.045C227.49 74.9983 228.589 75.8148 229.783 76.4718C226.293 75.8065 223.953 71.7809 223.713 71.3537C223.417 71.7881 222.852 72.7143 222.805 73.4957C222.74 74.5584 223.106 76.6214 222.496 76.7004C222.496 76.7016 220.439 73.9325 221.448 71.8288Z" fill="#2C3A64"/>
<path d="M223.295 87.3304C223.295 87.3304 221.788 89.95 221.562 90.6249C221.562 90.6249 223.517 90.5495 224.307 92.0478C224.307 92.0478 224.496 87.6835 223.295 87.3304Z" fill="#F99746"/>
<path d="M233.663 108.15C237.481 108.11 240.714 104.159 242.689 101.002C242.255 100.303 241.984 99.5146 241.896 98.6965C241.553 95.4547 241.684 92.4175 241.656 90.5699C241.314 90.3174 240.984 90.0912 240.676 89.8626C240.25 89.5705 239.851 89.2404 239.484 88.8766C236.352 94.1431 228.487 108.204 233.663 108.15Z" fill="#ED7D2B"/>
<path d="M219.232 110.219L219.755 112.124C219.755 112.124 220.412 112.005 221.458 111.812C221.772 111.752 221.951 111.708 221.951 111.708C222.791 111.544 223.788 111.321 224.879 111.083H224.894C226.761 110.636 228.858 110.101 230.616 109.505C231.855 109.073 232.931 108.612 233.663 108.15C233.736 108.105 233.805 108.056 233.872 108.002C235.619 106.737 237.695 103.015 239.31 99.0267C239.533 98.4763 239.742 97.9258 239.952 97.3897C240.656 95.548 241.225 93.6579 241.655 91.7343C241.866 90.849 242.001 89.9474 242.057 89.0394C242.077 88.787 242.082 88.5337 242.073 88.2807C242.043 83.9643 239.892 83.3743 239.892 83.3743C239.848 83.36 239.802 83.3444 239.742 83.3301C239.368 83.2702 238.98 83.5227 238.577 84.0146C238.069 84.6249 237.532 85.6217 236.978 86.8279C236.127 88.7426 235.231 91.234 234.395 93.7052C233.932 95.0586 233.484 96.4132 233.036 97.6637C232.781 98.4224 232.528 99.1368 232.289 99.7926C231.825 101.043 231.407 102.054 231.034 102.695C230.794 103.111 230.108 103.693 229.196 104.347C227.612 105.494 225.298 106.878 223.28 108.009C222.44 108.488 221.653 108.917 220.998 109.274C219.934 109.849 219.232 110.219 219.232 110.219Z" fill="#FFB27D"/>
<path d="M236.985 86.8267C239.86 86.0369 242.078 88.2734 242.078 88.2734C242.042 83.9654 239.89 83.3743 239.89 83.3743C239.024 83.0176 238.02 84.5123 236.985 86.8267Z" fill="#F99746"/>
<path d="M241.092 175.458H251.033C251.033 175.458 251.274 173.949 250.752 172.802C250.255 171.704 249.476 171.204 249.662 169.874C249.03 170.523 248.001 171.248 246.563 171.055C246.388 171.34 245.427 172.862 244.839 173.283C244.189 173.751 241.292 173.583 241.092 175.458Z" fill="#233862"/>
<path d="M219.745 175.458H229.687C229.687 175.458 230.059 173.878 229.406 172.803C228.829 171.845 229.046 171.31 229.477 170.529C228.95 170.756 228.378 170.863 227.803 170.842C227.308 170.815 226.783 170.591 226.325 170.324C225.897 170.811 224.064 172.88 223.492 173.29C222.842 173.752 219.945 173.583 219.745 175.458Z" fill="#233862"/>
<path d="M218.641 119.047L216.279 113.303C216.13 112.944 215.855 112.652 215.506 112.481C215.156 112.31 214.756 112.272 214.38 112.374C213.648 110.981 212.591 109.783 211.297 108.881C210.01 107.998 208.564 107.511 207.137 107.517C206.375 107.519 205.621 107.667 204.916 107.955C201.554 109.327 200.053 113.556 201.285 117.709L201.101 117.783C201.101 117.783 200.527 117.744 199.564 117.744C196.522 117.744 189.605 118.147 184.752 121.505C184.558 121.734 184.446 122.022 184.436 122.322C184.43 122.508 184.465 122.694 184.539 122.864C184.539 122.864 192.328 117.838 199.531 123.003C199.974 123.322 200.404 123.616 200.821 123.883L201.467 125.455C201.987 126.709 202.984 127.706 204.239 128.23C205.495 128.754 206.908 128.761 208.169 128.249L214.767 125.556L216.142 124.995C217.263 124.534 218.155 123.649 218.623 122.535C219.091 121.42 219.098 120.166 218.641 119.047ZM205.847 114.397L203.159 115.495C202.81 115.639 202.524 115.903 202.354 116.24C202.184 116.576 202.141 116.962 202.234 117.327L201.945 117.447C200.852 113.663 202.185 109.847 205.188 108.623C205.602 108.453 206.036 108.338 206.48 108.282C207.861 108.101 209.301 108.471 210.595 109.275C211.909 110.111 212.984 111.271 213.717 112.642L213.32 112.804C213.128 112.48 212.825 112.235 212.468 112.114C212.11 111.994 211.72 112.005 211.37 112.147L208.681 113.246C208.581 113.002 208.41 112.795 208.191 112.648C207.971 112.502 207.713 112.424 207.449 112.425C207.279 112.425 207.11 112.458 206.952 112.522L206.58 112.675C206.254 112.807 205.994 113.062 205.856 113.385C205.719 113.708 205.716 114.072 205.847 114.397Z" fill="#C94C43"/>
<path d="M200.821 123.884C200.403 123.613 199.973 123.319 199.531 123.004C192.326 117.84 184.539 122.865 184.539 122.865C184.465 122.695 184.43 122.509 184.436 122.323C185.526 121.605 189.613 119.228 194.677 120.041C200.61 120.995 201.683 121.816 200.821 123.884Z" fill="#B23B38"/>
<path d="M216.142 124.996L214.767 125.557C216.827 124.436 214.275 119.693 212.783 116.57C211.29 113.447 209.031 114.872 209.031 114.872C208.513 113.824 207.405 113.881 207.405 113.881C207.347 112.871 206.574 112.668 206.574 112.668L206.946 112.514C207.104 112.451 207.273 112.418 207.443 112.417C207.707 112.417 207.965 112.495 208.185 112.641C208.404 112.787 208.575 112.995 208.675 113.238L211.364 112.14C211.714 111.998 212.104 111.987 212.462 112.107C212.819 112.228 213.122 112.473 213.314 112.797L213.711 112.635C212.978 111.264 211.903 110.104 210.589 109.268C209.295 108.464 207.855 108.094 206.474 108.275C206.735 108.062 206.958 107.806 207.131 107.518C208.558 107.518 210.004 107.997 211.291 108.883C212.585 109.784 213.642 110.982 214.374 112.376C214.75 112.273 215.15 112.311 215.499 112.482C215.849 112.653 216.124 112.946 216.273 113.304L218.635 119.048C219.092 120.167 219.086 121.42 218.619 122.534C218.152 123.649 217.261 124.534 216.142 124.996Z" fill="#B23B38"/>
<path d="M213.053 112.066C214.014 112.466 215.353 113.861 217.505 113.023C218.8 112.539 220.123 112.137 221.468 111.817C221.781 111.757 221.96 111.713 221.96 111.713L221.109 109.241C221.076 109.256 221.04 109.266 221.004 109.271C220.452 109.391 217.642 109.989 216.329 109.688C214.851 109.346 212.366 111.117 212.366 111.117C212.366 111.117 212.092 111.678 213.053 112.066Z" fill="#FFB27D"/>
<path d="M186.059 127.013C186.059 126.119 184.435 123.36 184.435 123.36C184.435 123.36 182.81 126.119 182.81 127.013C182.795 127.234 182.826 127.456 182.901 127.665C182.976 127.874 183.093 128.065 183.245 128.227C183.397 128.389 183.58 128.518 183.785 128.606C183.989 128.695 184.209 128.74 184.431 128.74C184.654 128.74 184.874 128.695 185.078 128.606C185.282 128.518 185.466 128.389 185.618 128.227C185.77 128.065 185.887 127.874 185.962 127.665C186.036 127.456 186.067 127.234 186.053 127.013H186.059Z" fill="#AFCDFB"/>
<path d="M230.173 19.8085L227.789 20.3267L227.732 20.3398C227.593 20.3703 227.469 20.451 227.386 20.5665C227.302 20.682 227.264 20.8241 227.279 20.9657L227.494 22.9845C227.497 23.0171 227.497 23.0499 227.494 23.0826C227.487 23.194 227.447 23.3007 227.379 23.3897C227.312 23.4786 227.219 23.5458 227.114 23.5828C225.839 24.0341 224.667 24.7347 223.668 25.6435C223.627 25.6793 223.581 25.7099 223.532 25.7344C223.441 25.7783 223.339 25.7978 223.237 25.7909C223.136 25.7839 223.037 25.7509 222.952 25.6949L221.542 24.7484C221.452 24.6893 221.347 24.6561 221.238 24.6525C221.13 24.6489 221.023 24.675 220.929 24.728C220.87 24.7627 220.817 24.8063 220.771 24.8573L219.166 26.7564C219.071 26.8706 219.023 27.0157 219.029 27.1635C219.036 27.3114 219.097 27.4516 219.202 27.5569L220.803 29.1497C220.88 29.2265 220.933 29.3235 220.957 29.4294C220.981 29.5354 220.974 29.6458 220.937 29.748C220.831 30.0508 220.738 30.3571 220.66 30.6731C220.515 31.2536 220.423 31.846 220.384 32.4429C220.377 32.5619 220.333 32.6758 220.259 32.7695C220.186 32.8632 220.085 32.9321 219.97 32.9671L217.776 33.6444L217.666 33.6791C217.528 33.7211 217.412 33.8131 217.339 33.9368C217.267 34.0605 217.243 34.2069 217.274 34.3468L217.804 36.7761C217.836 36.9188 217.919 37.0448 218.039 37.1303C218.158 37.2159 218.304 37.255 218.45 37.2404L220.705 37.001C220.827 36.9879 220.95 37.0133 221.056 37.0736C221.162 37.134 221.247 37.2263 221.297 37.3373C221.742 38.2901 222.332 39.1685 223.046 39.9413C223.134 40.0379 223.187 40.1613 223.196 40.2915C223.205 40.4218 223.17 40.5513 223.096 40.6593L221.974 42.3274C221.893 42.4493 221.86 42.5963 221.881 42.7406C221.902 42.8849 221.975 43.0167 222.086 43.1112L223.998 44.7184C224.107 44.8099 224.246 44.8574 224.388 44.8515C224.531 44.8455 224.665 44.7864 224.766 44.6861L226.646 42.8133C226.725 42.7359 226.824 42.6816 226.931 42.6565C227.039 42.6313 227.152 42.6363 227.257 42.6709C227.521 42.7594 227.79 42.8392 228.065 42.9102C228.573 43.0363 229.091 43.1231 229.613 43.1699C229.727 43.1786 229.835 43.2214 229.924 43.2928C230.013 43.3641 230.078 43.4606 230.111 43.5696L230.926 46.2022C230.969 46.3411 231.063 46.4588 231.189 46.5322C231.315 46.6055 231.464 46.6291 231.606 46.5983L234.053 46.0694C234.178 46.041 234.29 45.9725 234.373 45.8744C234.455 45.7763 234.503 45.6539 234.509 45.5261C234.511 45.4982 234.511 45.4702 234.509 45.4423L234.245 42.9497C234.232 42.8368 234.252 42.7225 234.304 42.6211C234.356 42.5198 234.436 42.4359 234.536 42.3801C234.553 42.3695 234.571 42.3603 234.59 42.3525C234.646 42.33 234.702 42.3041 234.755 42.2748C235.415 41.9727 236.039 41.6012 236.619 41.1666C236.714 41.0946 236.83 41.0544 236.949 41.0518C237.068 41.0492 237.185 41.0844 237.283 41.1523L239.052 42.3334C239.174 42.4142 239.321 42.4474 239.466 42.4266C239.61 42.4058 239.742 42.3326 239.835 42.2209L240.196 41.7997L241.435 40.323C241.53 40.2115 241.579 40.0688 241.573 39.923C241.567 39.7772 241.506 39.639 241.403 39.5356L239.826 37.9656C239.744 37.8841 239.689 37.7795 239.669 37.666C239.649 37.5525 239.665 37.4356 239.714 37.3313C239.979 36.7537 240.189 36.1528 240.341 35.5363C240.455 35.0748 240.535 34.6056 240.581 34.1326L241.042 33.9914L242.931 33.4074C243.044 33.3737 243.143 33.3057 243.216 33.2131C243.288 33.1204 243.329 33.0076 243.334 32.8905C243.336 32.8406 243.331 32.7906 243.319 32.7421L242.791 30.2949C242.759 30.156 242.677 30.0335 242.561 29.9502C242.444 29.867 242.302 29.8287 242.159 29.8426L240.618 30.0089C240.491 30.0209 240.364 29.991 240.255 29.9238C240.147 29.8565 240.063 29.7557 240.018 29.6367C239.644 28.6254 239.112 27.6795 238.441 26.8341C238.364 26.74 238.319 26.6235 238.314 26.5021C238.309 26.3806 238.343 26.2607 238.412 26.1604L239.834 24.0483C239.911 23.9338 239.942 23.7952 239.923 23.6591C239.903 23.5229 239.834 23.3986 239.729 23.31L237.793 21.6861C237.683 21.5934 237.543 21.5452 237.4 21.5509C237.256 21.5567 237.121 21.6161 237.019 21.7172L235.063 23.6654C234.98 23.7471 234.875 23.8022 234.761 23.8236C234.646 23.8449 234.528 23.8315 234.421 23.785C233.941 23.5836 233.446 23.4203 232.94 23.2968C232.662 23.2286 232.383 23.1771 232.106 23.1269C231.999 23.1098 231.9 23.0635 231.818 22.9931C231.736 22.9227 231.676 22.831 231.644 22.7284L230.861 20.219C230.818 20.0771 230.724 19.9563 230.597 19.8803C230.469 19.8043 230.318 19.7787 230.173 19.8085ZM225.379 31.1948C225.632 30.5259 225.998 29.9051 226.46 29.3591C226.576 29.223 226.701 29.0955 226.835 28.9774C227.455 28.4341 228.36 27.9423 229.064 27.7927C234.449 26.657 238.02 32.4393 234.671 36.6947C234.615 36.7641 234.56 36.8335 234.501 36.9017C233.957 37.5455 232.829 38.2181 232.006 38.4011C231.594 38.4927 231.173 38.5456 230.75 38.5591C226.701 38.6656 224.05 34.786 225.379 31.1948Z" fill="#DFEDFB"/>
<path d="M266.58 28.0451L262.828 28.3826L262.738 28.3909C262.518 28.4115 262.314 28.5119 262.164 28.673C262.014 28.8341 261.928 29.0447 261.924 29.2645L261.865 32.3986C261.862 32.5964 261.792 32.7874 261.666 32.9405C261.54 33.0936 261.366 33.1999 261.172 33.2422C259.132 33.6905 257.202 34.54 255.495 35.7409C255.331 35.8553 255.133 35.9119 254.933 35.9017C254.733 35.8915 254.542 35.8151 254.39 35.6846L252.412 33.9638C252.285 33.8562 252.13 33.7854 251.965 33.7593C251.799 33.7331 251.63 33.7525 251.475 33.8154C251.378 33.8571 251.289 33.9141 251.21 33.9842L248.384 36.5869C248.216 36.7428 248.112 36.9559 248.094 37.1841C248.076 37.4123 248.144 37.6391 248.286 37.8195L250.432 40.5623C250.535 40.6948 250.598 40.8538 250.614 41.0207C250.63 41.1877 250.598 41.3557 250.522 41.5052C250.302 41.9504 250.099 42.4004 249.921 42.8694C249.588 43.7314 249.332 44.6213 249.158 45.5284C249.124 45.7092 249.036 45.8755 248.905 46.0049C248.774 46.1344 248.607 46.2207 248.425 46.2524L244.933 46.8711L244.757 46.9034C244.538 46.9413 244.342 47.06 244.206 47.2358C244.071 47.4117 244.008 47.6318 244.028 47.8524L244.373 51.6733C244.393 51.8988 244.497 52.1089 244.663 52.2634C244.829 52.4179 245.046 52.5061 245.274 52.511L248.774 52.5768C248.963 52.5795 249.146 52.6417 249.297 52.7543C249.448 52.8669 249.559 53.0243 249.615 53.2039C250.112 54.749 250.847 56.2079 251.792 57.5286C251.908 57.693 251.965 57.8913 251.954 58.0918C251.943 58.2923 251.865 58.4834 251.732 58.6344L249.691 60.975C249.542 61.1453 249.462 61.3643 249.466 61.5898C249.47 61.8154 249.557 62.0316 249.711 62.1968L252.324 65.0305C252.474 65.191 252.678 65.2899 252.897 65.3077C253.115 65.3254 253.333 65.2607 253.506 65.1263L256.749 62.6133C256.884 62.5089 257.045 62.444 257.215 62.4258C257.384 62.4076 257.556 62.4369 257.71 62.5104C258.096 62.697 258.493 62.8686 258.901 63.0249C259.656 63.3144 260.432 63.5464 261.222 63.719C261.395 63.7537 261.554 63.8397 261.676 63.9657C261.799 64.0918 261.881 64.2519 261.911 64.425L262.652 68.6134C262.691 68.8345 262.812 69.0329 262.991 69.1693C263.17 69.3058 263.394 69.3704 263.618 69.3505L267.462 69.0071C267.659 68.9877 267.844 68.9044 267.989 68.77C268.134 68.6355 268.231 68.4573 268.265 68.2628C268.273 68.2206 268.277 68.1777 268.277 68.1347L268.351 64.2635C268.353 64.0883 268.406 63.9174 268.505 63.7724C268.604 63.6273 268.743 63.5147 268.906 63.4486C268.935 63.4344 268.964 63.4232 268.995 63.415C269.086 63.391 269.175 63.3618 269.263 63.3277C270.336 62.9905 271.369 62.5396 272.345 61.9826C272.504 61.8899 272.688 61.8501 272.872 61.8691C273.055 61.888 273.228 61.9647 273.364 62.0879L275.847 64.2336C276.017 64.3811 276.236 64.4605 276.462 64.4565C276.688 64.4526 276.904 64.3655 277.069 64.212L277.699 63.634L279.888 61.6129C280.055 61.4601 280.157 61.2506 280.176 61.0258C280.195 60.801 280.128 60.5774 279.989 60.3994L277.875 57.6938C277.765 57.5533 277.701 57.3825 277.692 57.2045C277.683 57.0265 277.729 56.8501 277.825 56.6993C278.341 55.864 278.778 54.9826 279.131 54.0667C279.396 53.3816 279.612 52.6785 279.777 51.9629L280.51 51.8337L283.512 51.3012C283.693 51.2719 283.86 51.1868 283.989 51.058C284.118 50.9291 284.204 50.763 284.233 50.5832C284.247 50.507 284.249 50.4291 284.24 50.3522L283.902 46.5037C283.879 46.2845 283.777 46.0811 283.615 45.9313C283.452 45.7816 283.241 45.6958 283.02 45.69L280.629 45.6493C280.431 45.6451 280.24 45.5756 280.085 45.4518C279.931 45.328 279.822 45.1568 279.775 44.9648C279.397 43.3443 278.763 41.7938 277.898 40.3708C277.797 40.2118 277.751 40.0246 277.767 39.8373C277.782 39.6499 277.858 39.4727 277.983 39.3321L280.564 36.3739C280.703 36.2132 280.778 36.0071 280.774 35.795C280.77 35.583 280.688 35.3797 280.544 35.2239L277.891 32.3699C277.742 32.2065 277.536 32.1055 277.315 32.087C277.094 32.0686 276.875 32.1342 276.701 32.2705L273.328 34.8817C273.187 34.9921 273.015 35.0576 272.836 35.0696C272.657 35.0815 272.478 35.0394 272.323 34.9487C271.625 34.549 270.897 34.2045 270.146 33.9184C269.733 33.7588 269.318 33.6192 268.903 33.4995C268.743 33.4523 268.599 33.3619 268.487 33.2384C268.376 33.1148 268.3 32.9629 268.27 32.7995L267.558 28.7894C267.517 28.5664 267.394 28.3665 267.213 28.2288C267.033 28.0912 266.807 28.0257 266.58 28.0451ZM257.046 44.5723C257.56 43.5965 258.238 42.7154 259.05 41.9672C259.253 41.7801 259.469 41.6082 259.697 41.4526C260.752 40.7346 262.232 40.159 263.34 40.0645C271.808 39.3536 276.166 48.8935 270.217 54.7739C270.118 54.8696 270.02 54.9642 269.916 55.0587C268.956 55.9395 267.101 56.7544 265.807 56.8777C265.156 56.9387 264.502 56.9387 263.851 56.8777C257.633 56.2709 254.317 49.8197 257.046 44.5723Z" fill="#CDE3FD"/>
</g>
<defs>
<clipPath id="clip0">
<rect width="346" height="176" fill="white"/>
</clipPath>
</defs>
</svg>
