<svg width="267" height="268" viewBox="0 0 267 268" fill="none" xmlns="http://www.w3.org/2000/svg">
<path d="M265.816 268H1.18396C0.527984 268 0 267.472 0 266.816V266.4C0 265.744 0.527984 265.216 1.18396 265.216H265.816C266.472 265.216 267 265.744 267 266.4V266.816C267 267.472 266.456 268 265.816 268Z" fill="#55769F"/>
<path d="M158.139 118.377C162.411 103.322 169.243 98.2822 175.739 90.8426C179.931 86.7469 183.227 81.5952 185.179 75.6275C191.61 55.9007 180.827 34.702 161.099 28.2863C141.356 21.8547 120.156 32.6381 113.741 52.3649C111.565 59.0365 111.357 65.8841 112.813 72.2677C115.501 86.7949 131.196 98.9221 132.94 116.809C132.94 116.809 140.652 120.057 158.139 118.377Z" fill="#FFC61C"/>
<path d="M122.252 78.9886C120.812 72.605 121.004 65.7574 123.18 59.0858C129.612 39.359 150.812 28.5756 170.523 35.0072C172.315 35.5992 174.027 36.3031 175.675 37.1191C171.675 33.2153 166.747 30.1435 161.083 28.3036C141.356 21.856 120.156 32.6394 113.741 52.3662C111.565 59.0378 111.357 65.8854 112.813 72.269C115.501 86.7961 131.196 98.9234 132.94 116.81C132.94 116.81 135.66 117.946 141.532 118.522C137.756 103.291 124.684 92.1238 122.252 78.9886Z" fill="#F0BD22"/>
<path d="M119.228 45.7093C116.701 45.7893 113.789 45.6453 112.509 47.3892C111.229 49.1491 112.925 53.3408 113.677 54.8767C117.389 52.4129 118.332 52.1089 120.812 53.1488C123.292 54.1888 126.684 54.9247 127.884 58.0765C131.324 56.1087 129.564 52.6529 129.644 50.973C129.724 49.2931 129.324 45.6933 126.044 45.2133C122.764 44.7334 121.308 45.6453 119.228 45.7093Z" fill="#026EAF"/>
<path d="M158.923 79.6753C161.563 72.1557 164.571 65.6921 167.739 61.0684L168.555 61.6444C159.067 75.4675 151.051 106.042 150.347 131.256L149.339 131.24C149.835 114.281 153.611 94.8584 158.923 79.6753Z" fill="#FF5500"/>
<path d="M132.524 61.1324L133.468 60.7484C144.636 91.0346 143.068 122.041 142.332 130.824L141.34 130.76C142.06 122.025 143.612 91.2106 132.524 61.1324Z" fill="#FF5500"/>
<path d="M130.204 118.793C130.332 117.113 131.804 115.865 133.484 115.993L158.123 117.961C159.803 118.089 161.051 119.561 160.923 121.241C160.795 122.921 159.323 124.169 157.643 124.041L133.004 122.073C131.324 121.945 130.06 120.473 130.204 118.793Z" fill="#55769F"/>
<path d="M129.708 124.873C129.836 123.193 131.308 121.945 132.988 122.073L157.627 124.041C159.307 124.169 160.555 125.641 160.427 127.32C160.299 129 158.827 130.248 157.147 130.12L132.508 128.152C130.828 128.024 129.58 126.552 129.708 124.873Z" fill="#55769F"/>
<path d="M129.228 130.968C129.356 129.288 130.828 128.04 132.508 128.168L157.147 130.136C158.827 130.264 160.075 131.736 159.947 133.416C159.819 135.096 158.347 136.344 156.667 136.216L132.028 134.248C130.348 134.12 129.084 132.648 129.228 130.968Z" fill="#55769F"/>
<path d="M128.732 137.048C128.86 135.368 130.332 134.12 132.012 134.248L156.651 136.216C158.331 136.344 159.579 137.816 159.451 139.496C159.323 141.176 157.851 142.424 156.171 142.296L131.532 140.328C129.852 140.2 128.604 138.728 128.732 137.048Z" fill="#55769F"/>
<path d="M167.659 63.4522C166.923 64.2842 166.075 65.3561 165.003 65.6921C163.419 66.1881 162.875 64.2682 162.667 63.0683C162.555 62.4283 162.459 59.8045 161.371 60.1884C160.747 60.4124 160.203 60.9724 159.739 61.4364C159.163 62.0123 158.619 62.6363 158.059 63.2283C157.387 63.9482 155.707 65.9481 154.715 64.6842C154.315 64.1882 154.123 63.5002 153.931 62.8763C153.691 62.1243 153.467 61.3724 153.163 60.6524C152.939 60.1404 152.588 59.1805 151.964 59.0365C151.356 58.9085 150.796 59.7565 150.508 60.1884C149.644 61.4684 149.132 62.9723 148.22 64.2202C147.868 64.7002 147.388 65.2121 146.764 65.2121C146.092 65.2441 145.644 64.5882 145.372 64.0442C144.828 62.9883 144.492 61.8203 144.028 60.7324C143.948 60.5404 143.548 59.6765 143.244 59.8365C142.636 60.1564 142.252 60.9564 141.948 61.5324C141.324 62.7163 140.86 64.6682 139.564 65.2761C138.236 65.8521 137.212 64.2682 136.46 63.4202C135.916 62.8123 134.54 60.9564 133.58 61.7083C133.068 62.1083 132.732 62.7963 132.444 63.3722C132.14 63.9642 131.884 64.5722 131.596 65.1641C131.532 65.3081 131.548 65.3881 131.388 65.3401C131.308 65.3081 131.42 65.0521 131.436 64.9881C131.596 64.3642 131.756 63.7562 131.964 63.1483C132.204 62.3803 132.508 61.5484 133.1 60.9884C133.74 60.3804 134.604 60.4924 135.308 60.8444C136.092 61.2444 136.764 61.8683 137.404 62.4763C137.708 62.7643 137.996 63.0683 138.3 63.3562C138.46 63.5162 138.908 63.8202 138.972 63.8842C139.036 63.9482 139.868 62.2203 139.916 62.0923C140.236 61.3404 140.588 60.6044 141.036 59.9164C141.644 58.9885 142.652 57.8686 143.852 58.3165C144.764 58.6525 145.212 59.6285 145.532 60.4924C145.756 61.0684 145.932 61.6763 146.124 62.2683C146.188 62.4763 146.588 63.9482 146.844 63.9482C146.828 63.9322 146.812 63.9322 146.796 63.9482C147.308 63.8042 147.772 62.9563 148.06 62.5403C148.524 61.8683 148.94 61.1804 149.404 60.5244C150.06 59.6125 151.372 57.7406 152.572 58.8445C153.579 59.7725 153.915 61.4524 154.427 62.6843C154.571 63.0363 154.939 64.2522 155.403 64.2682C155.915 64.2842 156.555 63.2602 156.827 62.9083C157.995 61.4044 160.779 57.1006 162.891 59.4205C163.659 60.6524 163.579 62.0443 163.771 63.4522C163.835 63.9002 163.947 64.8602 164.491 64.9561C165.131 65.0681 165.915 64.4442 166.411 64.1082C166.683 63.9162 166.955 63.7402 167.211 63.5482C167.403 63.4522 167.563 63.2442 167.659 63.4522Z" fill="#FF5500"/>
<path d="M142.796 156.583C146.524 117.161 173.291 82.5871 211.914 64.5242C205.482 114.969 175.995 161.67 142.796 156.583Z" fill="#06B8A6"/>
<path d="M211.914 64.5242C185.467 93.7864 175.579 136.248 142.796 156.583C175.995 161.67 205.482 114.969 211.914 64.5242Z" fill="#02CCC0"/>
<path d="M211.914 64.5242C210.442 66.2681 209.002 68.012 207.578 69.8039C205.85 71.9957 204.202 74.2676 202.618 76.5555C199.322 81.3072 196.266 86.2029 193.306 91.1946C190.314 96.2503 187.434 101.37 184.523 106.474C181.579 111.625 178.635 116.761 175.467 121.785C172.379 126.68 169.147 131.512 165.515 136.024C163.707 138.28 161.835 140.456 159.867 142.584C158.907 143.623 157.899 144.631 156.907 145.639C155.899 146.647 154.843 147.623 153.771 148.535C151.868 150.151 149.964 151.751 147.916 153.191C146.908 153.911 145.9 154.615 144.844 155.287C144.156 155.719 143.468 156.151 142.78 156.583C143.468 156.119 144.156 155.639 144.844 155.175C145.948 154.423 146.988 153.623 148.044 152.839C149.148 152.007 150.188 151.111 151.26 150.231C151.788 149.799 152.284 149.319 152.779 148.855C153.307 148.375 153.835 147.911 154.347 147.415C155.371 146.423 156.395 145.431 157.371 144.407C158.363 143.367 159.339 142.312 160.283 141.24C162.187 139.08 164.027 136.84 165.723 134.536C167.435 132.2 169.147 129.864 170.747 127.464C172.379 125.033 173.963 122.553 175.499 120.057C178.603 115.017 181.547 109.881 184.491 104.746C187.418 99.6581 190.33 94.5544 193.418 89.5627C196.458 84.651 199.578 79.7713 203.066 75.1635C204.602 73.1317 206.154 71.1158 207.802 69.1639C209.162 67.58 210.538 66.0441 211.914 64.5242Z" fill="white"/>
<path d="M159.547 109.258C159.291 114.489 159.051 119.737 159.387 124.969C159.483 126.376 159.547 127.784 159.643 129.192C159.755 130.6 159.899 132.008 160.043 133.416C160.283 135.88 160.635 138.344 161.067 140.776C160.395 138.536 159.979 136.216 159.611 133.912C159.147 131.08 158.891 128.216 158.731 125.353C158.571 122.489 158.587 119.609 158.747 116.745C158.875 114.249 159.179 111.785 159.547 109.322C159.547 109.306 159.547 109.29 159.547 109.258Z" fill="white"/>
<path d="M179.979 85.5309C179.979 86.5709 179.963 87.6108 179.979 88.6508C180.011 90.0587 180.091 91.4666 180.203 92.8585C180.427 95.7543 180.795 98.6502 181.275 101.514C181.707 104.042 182.155 106.57 182.651 109.082C181.835 106.73 181.243 104.298 180.747 101.866C180.171 99.0341 179.755 96.1383 179.643 93.2425C179.579 91.7866 179.547 90.3307 179.643 88.8907C179.691 87.7708 179.803 86.6509 179.979 85.5309Z" fill="white"/>
<path d="M154.348 147.719C156.795 148.231 159.275 148.375 161.771 148.199C164.651 148.007 167.499 147.511 170.315 146.871C171.691 146.551 173.067 146.231 174.427 145.847C172.299 146.871 169.979 147.527 167.691 148.039C164.907 148.663 162.011 148.983 159.163 148.775C157.515 148.647 155.915 148.311 154.348 147.719Z" fill="white"/>
<path d="M171.803 126.648C172.843 126.632 173.883 126.616 174.939 126.584C176.315 126.536 177.691 126.312 179.067 126.104C181.883 125.609 184.699 124.969 187.386 123.961C188.634 123.497 189.882 123.049 191.082 122.489C192.026 122.041 192.954 121.577 193.882 121.081C191.914 122.585 189.722 123.657 187.434 124.585C186.779 124.825 186.123 125.081 185.451 125.289C184.779 125.497 184.123 125.689 183.451 125.88C182.075 126.264 180.667 126.52 179.243 126.696C177.851 126.856 176.443 126.968 175.035 126.952C173.947 126.92 172.875 126.808 171.803 126.648Z" fill="white"/>
<path d="M194.954 87.7708C196.058 87.5628 197.178 87.4028 198.266 87.0988C199.578 86.7308 200.858 86.2989 202.09 85.7389C204.458 84.667 206.73 83.3391 208.794 81.7552C207.13 83.739 204.826 85.2909 202.458 86.3309C201.194 86.8748 199.898 87.2908 198.538 87.5468C197.354 87.7548 196.17 87.8188 194.954 87.7708C194.97 87.7708 194.954 87.7708 194.954 87.7708Z" fill="white"/>
<path d="M125.228 154.151C97.6291 157.719 69.7739 144.743 51.4065 121.065C86.9734 117.657 123.548 130.6 125.228 154.151Z" fill="#06B8A6"/>
<path d="M51.4065 121.065C75.5658 134.648 106.205 134.84 125.228 154.151C123.548 130.6 86.9734 117.657 51.4065 121.065Z" fill="#02CCC0"/>
<path d="M51.4065 121.065C52.8305 121.801 54.2544 122.521 55.6944 123.209C57.4703 124.057 59.2783 124.825 61.0862 125.561C64.8621 127.08 68.686 128.424 72.5579 129.672C76.4937 130.936 80.4456 132.12 84.3975 133.32C88.3814 134.536 92.3653 135.768 96.3012 137.144C100.141 138.504 103.949 139.96 107.597 141.752C109.421 142.648 111.213 143.591 112.973 144.599C113.837 145.095 114.685 145.623 115.533 146.151C116.381 146.679 117.213 147.255 118.012 147.847C119.42 148.903 120.812 149.959 122.108 151.127C122.748 151.703 123.404 152.295 124.012 152.903C124.412 153.303 124.828 153.719 125.228 154.119C124.796 153.719 124.364 153.319 123.948 152.919C123.26 152.279 122.556 151.687 121.836 151.079C121.1 150.455 120.316 149.879 119.548 149.287C119.164 148.999 118.764 148.727 118.38 148.455C117.981 148.167 117.565 147.879 117.149 147.607C116.317 147.063 115.485 146.519 114.621 146.007C113.757 145.495 112.877 144.983 111.997 144.503C110.221 143.527 108.413 142.632 106.557 141.816C104.701 141 102.829 140.2 100.925 139.464C99.0051 138.728 97.0531 138.024 95.1012 137.368C91.1653 136.024 87.1814 134.808 83.2135 133.576C79.2777 132.36 75.3258 131.16 71.4219 129.816C67.582 128.504 63.7581 127.112 60.0622 125.433C58.4303 124.697 56.7983 123.945 55.2144 123.113C53.9184 122.489 52.6545 121.785 51.4065 121.065Z" fill="white"/>
<path d="M90.1893 150.023C93.8052 149.383 97.4531 148.743 100.989 147.703C101.933 147.415 102.893 147.159 103.837 146.871C104.781 146.583 105.725 146.263 106.669 145.943C108.317 145.399 109.949 144.775 111.549 144.103C110.125 144.919 108.589 145.559 107.069 146.167C105.197 146.919 103.277 147.543 101.341 148.103C99.4051 148.663 97.4211 149.095 95.4372 149.431C93.7092 149.735 91.9653 149.911 90.2213 150.039C90.2213 150.007 90.2053 150.007 90.1893 150.023Z" fill="white"/>
<path d="M70.7499 139.704C71.4699 139.544 72.1738 139.4 72.8938 139.224C73.8538 138.984 74.7978 138.712 75.7417 138.424C77.6937 137.816 79.6136 137.128 81.5016 136.344C83.1655 135.656 84.8295 134.952 86.4774 134.232C84.9895 135.16 83.4215 135.944 81.8215 136.664C79.9656 137.496 78.0457 138.232 76.0937 138.76C75.1017 139.032 74.1098 139.272 73.1018 139.448C72.3338 139.56 71.5499 139.64 70.7499 139.704Z" fill="white"/>
<path d="M117.357 147.607C117.325 145.847 117.037 144.135 116.525 142.44C115.949 140.504 115.165 138.616 114.285 136.792C113.853 135.896 113.421 135 112.941 134.136C113.965 135.432 114.781 136.92 115.501 138.408C116.365 140.216 117.037 142.152 117.325 144.135C117.501 145.303 117.517 146.455 117.357 147.607Z" fill="white"/>
<path d="M100.205 138.92C100.029 138.2 99.8531 137.496 99.6771 136.776C99.4211 135.832 99.0691 134.92 98.7171 134.024C97.9491 132.168 97.0531 130.344 95.9492 128.648C95.4372 127.864 94.9412 127.08 94.3652 126.345C93.9172 125.769 93.4533 125.209 92.9573 124.649C94.2852 125.769 95.3572 127.112 96.3652 128.52C96.6212 128.936 96.9092 129.336 97.1491 129.768C97.3891 130.2 97.6291 130.616 97.8691 131.048C98.3331 131.928 98.7491 132.856 99.0851 133.8C99.4211 134.728 99.7091 135.672 99.9171 136.648C100.061 137.416 100.141 138.168 100.205 138.92Z" fill="white"/>
<path d="M69.9659 129.096C69.6459 128.376 69.3739 127.624 68.9899 126.936C68.5419 126.105 68.0459 125.289 67.47 124.521C66.366 123.065 65.102 121.705 63.6941 120.553C65.31 121.385 66.734 122.729 67.806 124.185C68.3819 124.969 68.8619 125.785 69.2459 126.68C69.5819 127.448 69.8059 128.248 69.9659 129.096C69.9659 129.08 69.9659 129.08 69.9659 129.096Z" fill="white"/>
<path d="M155.483 151.367C169.531 127.352 196.826 113.225 226.777 113.145C207.754 143.399 175.147 164.438 155.483 151.367Z" fill="#06B8A6"/>
<path d="M226.793 113.161C201.274 123.977 182.394 148.119 155.483 151.367C175.147 164.438 207.754 143.4 226.793 113.161Z" fill="#02CCC0"/>
<path d="M226.793 113.161C225.337 113.833 223.897 114.521 222.474 115.241C220.714 116.121 219.002 117.081 217.322 118.073C213.818 120.137 210.41 122.345 207.066 124.649C203.658 126.985 200.314 129.401 196.954 131.784C193.562 134.2 190.154 136.6 186.651 138.856C183.243 141.064 179.739 143.192 176.091 144.984C174.267 145.88 172.427 146.711 170.555 147.495C169.627 147.879 168.699 148.231 167.755 148.567C166.811 148.903 165.851 149.223 164.891 149.495C163.195 149.959 161.515 150.423 159.787 150.727C158.923 150.887 158.075 151.047 157.211 151.143C156.635 151.223 156.075 151.287 155.5 151.367C156.075 151.271 156.651 151.175 157.227 151.079C158.139 150.935 159.051 150.727 159.963 150.535C160.907 150.343 161.851 150.071 162.779 149.831C163.243 149.703 163.691 149.543 164.155 149.415C164.635 149.271 165.099 149.127 165.579 148.951C166.523 148.615 167.467 148.295 168.395 147.927C169.339 147.559 170.267 147.175 171.195 146.775C173.051 145.976 174.875 145.08 176.651 144.12C178.443 143.144 180.203 142.152 181.947 141.096C183.707 140.024 185.451 138.92 187.163 137.784C190.634 135.496 194.026 133.08 197.434 130.68C200.81 128.297 204.17 125.913 207.626 123.641C211.018 121.417 214.458 119.225 218.042 117.321C219.626 116.489 221.21 115.657 222.842 114.905C224.137 114.281 225.449 113.721 226.793 113.161Z" fill="white"/>
<path d="M180.17 126.168C178.459 129.416 176.747 132.696 175.419 136.136C175.067 137.064 174.683 137.976 174.331 138.904C173.979 139.832 173.659 140.776 173.339 141.72C172.763 143.367 172.267 145.031 171.819 146.711C172.043 145.079 172.475 143.479 172.923 141.912C173.467 139.976 174.155 138.072 174.891 136.2C175.643 134.328 176.507 132.504 177.451 130.712C178.267 129.16 179.195 127.672 180.154 126.216C180.154 126.2 180.17 126.184 180.17 126.168Z" fill="white"/>
<path d="M200.218 117.097C199.914 117.769 199.594 118.425 199.29 119.097C198.89 120.009 198.538 120.921 198.186 121.849C197.466 123.753 196.842 125.721 196.314 127.672C195.834 129.416 195.37 131.16 194.938 132.904C195.114 131.16 195.45 129.432 195.85 127.736C196.33 125.769 196.922 123.785 197.69 121.913C198.074 120.969 198.49 120.025 198.97 119.129C199.37 118.425 199.77 117.753 200.218 117.097Z" fill="white"/>
<path d="M165.483 149.143C166.891 150.199 168.427 151.015 170.075 151.655C171.963 152.375 173.931 152.919 175.915 153.335C176.891 153.543 177.851 153.735 178.842 153.895C177.195 153.911 175.515 153.655 173.899 153.303C171.947 152.887 169.995 152.231 168.251 151.239C167.211 150.679 166.299 149.975 165.483 149.143Z" fill="white"/>
<path d="M182.826 140.888C183.498 141.192 184.17 141.48 184.842 141.768C185.738 142.136 186.682 142.408 187.61 142.679C189.546 143.191 191.546 143.623 193.546 143.783C194.474 143.863 195.402 143.943 196.346 143.943C197.082 143.943 197.818 143.911 198.554 143.863C196.858 144.231 195.146 144.263 193.402 144.183C192.906 144.135 192.41 144.119 191.93 144.039C191.45 143.975 190.954 143.895 190.474 143.815C189.498 143.655 188.506 143.399 187.562 143.095C186.618 142.791 185.69 142.439 184.81 142.008C184.122 141.672 183.466 141.288 182.826 140.888Z" fill="white"/>
<path d="M209.098 122.953C209.866 123.145 210.618 123.369 211.402 123.497C212.346 123.657 213.29 123.753 214.249 123.769C216.073 123.785 217.913 123.609 219.705 123.209C218.057 123.977 216.121 124.297 214.313 124.249C213.338 124.217 212.394 124.105 211.45 123.865C210.634 123.657 209.866 123.337 209.098 122.953Z" fill="white"/>
<path d="M142.62 153.303C156.667 90.8586 107.437 66.572 85.6295 50.349C63.8061 34.142 62.2222 21.2467 62.2222 21.2467C57.2463 58.5245 61.3742 103.946 86.1415 124.601C110.909 145.239 131.9 147.495 137.708 154.791C144.7 151.415 142.62 153.303 142.62 153.303Z" fill="#06B8A6"/>
<path d="M85.6295 50.365C64.2541 34.4779 62.3022 21.7907 62.2382 21.2787C67.614 62.7642 88.0614 84.7149 110.781 103.482C129.132 118.633 138.236 141.976 141.724 153.031C142.268 152.839 142.572 152.775 142.748 152.791C156.395 90.7146 107.389 66.54 85.6295 50.365Z" fill="#02CCC0"/>
<path d="M142.732 152.775C142.7 152.951 142.652 153.127 142.62 153.303C142.62 153.303 143.18 152.791 142.732 152.775Z" fill="#446284"/>
<path d="M62.2222 21.2627C62.5582 23.4066 62.9262 25.5345 63.3101 27.6624C63.7741 30.2062 64.3501 32.7181 64.9581 35.2299C66.318 40.7176 68.062 46.1413 70.2059 51.3729C72.3819 56.7006 74.9898 61.8523 77.9817 66.78C80.9416 71.6597 84.3015 76.2995 87.9814 80.6512C90.0294 83.083 92.1573 85.4349 94.3492 87.7228C96.9251 90.4266 99.6291 93.0025 102.397 95.4983C104.557 97.4662 106.749 99.3701 108.989 101.258C110.333 102.394 111.693 103.498 112.989 104.666C117.277 108.506 121.116 112.841 124.492 117.481C127.9 122.153 130.876 127.112 133.484 132.28C135.932 137.128 138.028 142.136 139.836 147.255C140.508 149.159 141.116 151.095 141.708 153.031C140.348 148.999 138.828 145.031 137.1 141.128C134.892 136.136 132.412 131.272 129.564 126.616C126.556 121.657 123.18 116.953 119.356 112.585C117.469 110.425 115.437 108.362 113.325 106.41C112.045 105.226 110.701 104.122 109.357 103.018C104.845 99.2901 100.477 95.4023 96.2852 91.3066C94.6692 89.7227 93.0853 88.1068 91.5653 86.4268C88.4614 83.0191 85.4375 79.5153 82.7496 75.7715C79.3577 71.0518 76.2698 66.1561 73.6458 60.9564C71.1179 55.9487 69.006 50.733 67.278 45.3893C65.5981 40.2216 64.3501 34.9099 63.3901 29.5662C62.9421 26.8144 62.5742 24.0466 62.2222 21.2627Z" fill="white"/>
<path d="M60.7662 60.9724C61.6142 61.6123 62.4462 62.2683 63.3262 62.8923C64.4461 63.6922 65.6141 64.4122 66.7821 65.1321C68.014 65.8841 69.294 66.5721 70.5739 67.228C71.8539 67.884 73.1499 68.5239 74.4618 69.1319C76.4618 70.0599 78.4937 70.9398 80.5416 71.7878C78.1257 71.1798 75.7898 70.3318 73.5019 69.3559C70.8619 68.236 68.302 66.876 65.9181 65.2921C64.8781 64.5882 63.8701 63.8522 62.9102 63.0363C62.1582 62.3643 61.4542 61.6763 60.7662 60.9724Z" fill="white"/>
<path d="M69.582 101.338C70.638 101.594 71.694 101.866 72.7499 102.138C74.0779 102.474 75.4379 102.73 76.7818 103.018C78.1738 103.322 79.5817 103.53 80.9737 103.786C82.3977 104.042 83.8376 104.234 85.2776 104.41C88.1895 104.762 91.1174 105.066 94.0453 105.242C96.9252 105.418 99.8211 105.578 102.717 105.562C106.093 105.578 109.469 105.546 112.829 105.338C107.549 106.058 102.205 106.17 96.8932 106.026C91.0694 105.866 85.2296 105.21 79.5337 104.026C77.6938 103.642 75.8858 103.194 74.0619 102.714C72.5579 102.33 71.07 101.818 69.582 101.338Z" fill="white"/>
<path d="M108.973 139.832C111.325 140.312 113.661 140.792 116.029 141.16C118.268 141.512 120.54 141.848 122.812 142.008C127.82 142.392 132.844 142.615 137.852 142.232C135.548 142.711 133.132 142.887 130.78 142.935C128.124 142.999 125.468 142.903 122.812 142.679C120.556 142.487 118.316 142.136 116.093 141.704C114.733 141.432 113.389 141.112 112.045 140.76C111.021 140.504 109.997 140.168 108.973 139.832C108.973 139.848 108.973 139.848 108.973 139.832Z" fill="white"/>
<path d="M134.7 94.4264C134.972 96.8742 135.196 99.3381 135.292 101.802C135.404 104.714 135.324 107.626 135.132 110.537C134.748 116.137 133.852 121.785 132.044 127.112C131.836 127.704 131.628 128.312 131.372 128.888C132.092 126.52 132.652 124.073 133.068 121.625C133.564 118.777 133.964 115.913 134.252 113.033C134.796 107.418 134.908 101.77 134.748 96.1223C134.732 95.5463 134.716 94.9863 134.7 94.4264Z" fill="white"/>
<path d="M115.357 55.1327C116.029 53.4048 117.037 50.701 117.165 50.109C116.557 50.525 115.885 51.5009 115.885 51.5009C114.925 49.2931 114.525 47.1332 114.525 47.1332C114.189 47.1332 114.653 50.093 114.557 50.125C114.461 50.141 113.501 47.2452 113.501 47.2452C113.197 47.3732 114.077 50.189 113.981 50.221C113.885 50.253 112.941 47.4532 112.765 47.6772C112.637 47.8372 113.565 50.445 113.437 50.445C113.325 50.445 112.477 48.1891 112.317 48.5091C112.173 48.8291 113.037 51.5489 113.741 53.1648C113.805 53.4528 113.773 53.9648 113.677 54.5248C113.981 55.1007 115.357 55.1327 115.357 55.1327Z" fill="#FFC0BB"/>
<path d="M121.436 54.1888C121.388 52.2529 121.34 49.2291 121.436 48.5891C121.884 49.2131 122.204 50.413 122.204 50.413C123.932 48.5731 125.084 46.5732 125.084 46.5732C125.404 46.6852 123.9 49.4531 123.996 49.5011C124.076 49.5651 126.06 47.0372 126.06 47.0372C126.316 47.2772 124.444 49.725 124.54 49.805C124.636 49.869 126.54 47.4372 126.636 47.7252C126.716 47.9332 124.876 50.189 124.988 50.221C125.1 50.269 126.748 48.3491 126.78 48.7011C126.812 49.0691 124.988 51.4529 123.724 52.7969C123.564 53.0529 123.404 53.5808 123.292 54.1568C122.812 54.6528 121.436 54.1888 121.436 54.1888Z" fill="#FFC0BB"/>
<path d="M101.597 77.7554C102.941 70.4918 110.157 57.3086 113.197 54.0128C114.397 54.6208 115.901 55.0047 115.901 55.0047C112.077 63.0203 109.629 74.9716 109.453 77.3874C108.173 80.5392 100.877 81.6112 101.597 77.7554Z" fill="#FF5B7E"/>
<path d="M109.213 75.3235C109.021 76.6514 109.213 77.6594 109.213 77.6594C106.461 77.9634 104.269 77.4674 104.269 77.4674C104.621 76.5234 104.813 75.1635 104.813 75.1635C106.669 74.7155 109.213 75.3235 109.213 75.3235Z" fill="#FFC0BB"/>
<path d="M109.261 63.4042C112.269 66.4761 112.941 71.4838 111.373 74.8916C109.933 75.9475 105.709 75.0036 105.709 75.0036C106.989 70.3798 109.261 63.4042 109.261 63.4042Z" fill="#FFC0BB"/>
<path d="M99.981 65.7241C101.837 60.1404 111.197 61.6603 111.101 66.1241C111.421 67.82 110.845 69.7398 109.869 71.4677C109.245 70.2198 108.125 70.1878 107.869 71.2438C107.597 72.3477 108.061 73.1156 108.717 73.2116C107.309 75.0515 105.981 75.4035 104.717 75.6115C99.197 72.2677 98.893 69.0039 99.981 65.7241Z" fill="#07085B"/>
<path d="M104.941 64.5722C104.941 63.7082 104.701 62.9083 104.269 62.2203C102.381 62.5563 100.669 63.6442 99.981 65.7241C99.629 66.796 99.421 67.852 99.485 68.9239C99.805 69.0039 100.141 69.0359 100.477 69.0359C102.957 69.0359 104.941 67.036 104.941 64.5722Z" fill="#04053B"/>
<path d="M104.765 64.1722C104.765 66.636 102.765 68.6359 100.301 68.6359C97.8371 68.6359 95.8372 66.636 95.8372 64.1722C95.8372 61.7083 97.8371 59.7085 100.301 59.7085C102.765 59.7085 104.765 61.7083 104.765 64.1722Z" fill="#07085B"/>
<path d="M109.229 114.489C109.229 122.617 107.773 131.768 98.3651 143.671C95.6292 144.679 95.3252 141.672 95.3252 141.672C100.781 128.424 102.029 127.336 101.389 115.849C101.037 109.401 101.165 104.41 101.165 104.41C106.701 106.218 109.229 114.489 109.229 114.489Z" fill="#015587"/>
<path d="M95.3251 141.672L93.3252 144.567C93.1332 144.855 93.1972 145.223 93.4852 145.415L100.013 149.943C100.589 150.343 101.325 149.735 101.053 149.095L98.365 143.655C98.365 143.671 96.3331 144.167 95.3251 141.672Z" fill="#07085B"/>
<path d="M113.261 98.8741C114.237 103.514 117.212 112.553 118.572 121.129C119.74 128.456 118.124 145.415 118.124 145.415C116.908 147.239 114.909 146.247 114.493 145.415C113.469 131.752 112.365 125.881 112.029 124.521C111.693 123.161 106.189 113.785 104.253 112.217C99.373 108.266 99.149 103.002 101.421 98.4582C109.645 97.9622 113.261 98.8741 113.261 98.8741Z" fill="#026EAF"/>
<path d="M114.477 145.399L114.397 148.935C114.397 149.271 114.669 149.559 115.005 149.559L122.956 149.735C123.66 149.751 123.932 148.839 123.356 148.455L118.124 145.399C118.108 145.399 116.685 146.935 114.477 145.399Z" fill="#07085B"/>
<path d="M107.133 75.9635C110.109 75.8035 110.733 76.5875 113.469 74.1396C116.221 71.6917 119.164 68.044 119.516 67.356C121.1 60.9244 120.892 54.6208 121.228 53.9008C122.476 53.7888 123.884 53.6768 123.932 53.9008C125.18 65.2441 125.788 67.756 124.828 70.7478C123.868 73.7396 118.22 81.4832 117.596 83.0031C116.972 84.523 114.637 89.1147 115.101 92.8905C115.549 96.6502 114.989 99.0501 113.181 99.8021C111.373 100.554 108.333 100.042 105.549 99.8821C102.765 99.7381 100.877 99.1301 99.981 98.1542C99.085 97.1782 99.597 91.9785 99.901 87.7708C100.205 83.547 100.269 79.9473 101.549 77.9794C102.909 75.8675 106.013 76.0275 107.133 75.9635Z" fill="#FF5B7E"/>
<path d="M206.41 170.806H77.1337C74.0938 170.806 71.6299 168.342 71.6299 165.302V155.159C71.6299 152.119 74.0938 149.655 77.1337 149.655H206.41C209.45 149.655 211.914 152.119 211.914 155.159V165.302C211.914 168.342 209.45 170.806 206.41 170.806Z" fill="#D1DDFB"/>
<path d="M52.7985 185.461C52.2385 183.093 51.1345 182.741 51.6305 180.709C52.0465 181.349 51.7105 182.181 53.0225 182.437C54.3344 182.693 55.1984 182.069 55.1984 182.069C54.2864 184.149 54.7344 184.773 54.8784 185.653C54.0784 185.989 52.7985 185.461 52.7985 185.461Z" fill="#FFC0BB"/>
<path d="M49.0386 180.389C49.0386 180.389 54.4304 184.757 54.9264 184.725C55.4064 184.693 56.2064 182.997 56.2064 182.997C52.1425 180.725 51.9825 178.469 51.9825 178.469C49.6306 180.085 49.0386 180.389 49.0386 180.389Z" fill="#E03D60"/>
<path d="M45.5187 178.469C44.3347 180.053 45.4547 182.021 47.6626 181.237C47.3746 179.061 45.5187 178.469 45.5187 178.469Z" fill="#E03D60"/>
<path d="M57.3104 174.022C57.3104 174.95 56.5584 175.718 55.6144 175.718C54.6864 175.718 53.9185 174.966 53.9185 174.022C53.9185 173.094 54.6704 172.326 55.6144 172.326C56.5584 172.342 57.3104 173.094 57.3104 174.022Z" fill="#FF5B7E"/>
<path d="M43.9508 189.189C47.3107 191.429 48.6866 195.06 50.4306 193.14C51.6306 191.813 52.4945 185.061 52.4945 185.061C53.9985 185.061 55.1985 185.061 55.1985 185.061C56.5104 194.98 54.1905 198.356 51.7106 199.748C48.8626 201.348 41.8548 198.356 41.8548 198.356C39.8389 194.964 43.9508 189.189 43.9508 189.189Z" fill="#E6B115"/>
<path d="M53.4544 181.077C53.0384 181.573 52.5584 182.181 52.7344 182.261C52.8144 182.293 53.9504 181.317 53.9504 181.317C52.9424 182.677 52.8624 182.901 52.9744 182.997C53.1344 183.125 54.3504 181.701 54.3504 181.701C53.6784 182.789 53.5184 183.141 53.6624 183.189C53.7424 183.221 54.6863 182.117 54.6863 182.117C53.8064 183.477 54.1584 183.365 54.6223 182.869C55.1663 182.293 55.4223 182.037 55.2783 181.893C55.3103 181.413 54.8143 181.365 54.8143 181.365C54.7823 180.805 54.2863 180.853 54.2863 180.853C53.9504 180.453 53.4544 181.077 53.4544 181.077Z" fill="#FFC0BB"/>
<path d="M45.5187 178.469L52.9745 170.214L57.9343 177.557L47.6626 181.221L45.5187 178.469Z" fill="#FF5B7E"/>
<path d="M58.8463 178.005L58.3343 178.357C58.1263 178.501 57.8543 178.437 57.7263 178.245L52.2545 170.182C52.1105 169.974 52.1745 169.702 52.3665 169.574L52.8785 169.222C53.0865 169.078 53.3585 169.142 53.4865 169.334L58.9583 177.397C59.1023 177.589 59.0543 177.877 58.8463 178.005Z" fill="#E03D60"/>
<path d="M27.0872 237.09C25.7432 241.49 20.5274 248.865 15.3435 255.713C15.1035 259.137 17.9355 257.329 17.9355 257.329C30.3511 244.833 33.487 236.626 33.487 236.626C30.6391 236.162 27.4232 236.034 27.0872 237.09Z" fill="#FFC0BB"/>
<path d="M36.2069 234.754C35.647 241.602 35.711 243.937 32.1431 261.072C34.287 263.536 35.183 260.992 35.183 260.992C41.3428 243.266 41.3428 238.434 41.3428 238.434C38.4629 238.082 36.2069 234.754 36.2069 234.754Z" fill="#FFC0BB"/>
<path d="M33.119 208.276C27.2312 213.459 25.7272 222.483 26.2552 237.17C33.855 239.954 42.2227 239.65 42.2227 239.65C49.6785 219.843 47.1186 213.491 43.7587 208.276C40.0468 206.98 33.119 208.276 33.119 208.276Z" fill="#026EAF"/>
<path d="M32.767 210.195C33.983 211.699 35.8709 214.067 36.1749 214.627C35.4389 214.403 34.447 213.651 34.447 213.651C34.207 216.163 34.495 218.451 34.495 218.451C34.175 218.563 33.679 215.459 33.567 215.459C33.471 215.459 33.439 218.659 33.439 218.659C33.103 218.627 33.071 215.539 32.959 215.539C32.847 215.539 32.815 218.627 32.559 218.467C32.383 218.355 32.463 215.443 32.351 215.475C32.239 215.507 32.111 218.035 31.855 217.763C31.615 217.491 31.599 214.483 31.775 212.659C31.743 212.355 31.551 211.843 31.2791 211.315C31.391 210.675 32.767 210.195 32.767 210.195Z" fill="#FFC0BB"/>
<path d="M15.3436 255.697L13.3276 258.593C13.1356 258.881 13.1996 259.249 13.4876 259.44L20.0154 263.968C20.5914 264.368 21.3274 263.76 21.0554 263.12L17.9195 257.297C17.9355 257.329 16.3516 258.209 15.3436 255.697Z" fill="#07085B"/>
<path d="M32.1271 261.088L32.1431 264.624C32.1431 264.96 32.4151 265.232 32.7671 265.232L40.7188 265.216C41.4228 265.216 41.6788 264.304 41.0868 263.936L35.183 261.008C35.167 261.008 33.647 262.16 32.1271 261.088Z" fill="#07085B"/>
<path d="M36.9749 188.389C34.735 189.477 31.4711 189.733 30.7831 192.005C30.0951 194.26 29.5032 195.924 31.2311 201.108C32.9591 206.308 33.119 208.276 33.119 208.276C37.5829 208.948 43.5027 208.676 43.7587 208.276C44.4787 201.636 46.7026 199.22 46.7346 196.212C46.7826 193.204 43.9347 189.189 43.9347 189.189C42.7508 188.405 40.7828 188.005 40.7828 188.005C39.6309 188.069 36.9749 188.389 36.9749 188.389Z" fill="#FFC61C"/>
<path d="M40.7989 187.925L40.3189 184.853L36.991 185.941L36.959 188.197C36.959 188.661 37.279 189.077 37.743 189.157C38.2709 189.269 39.5509 189.093 40.2709 188.821C40.6389 188.677 40.8629 188.309 40.7989 187.925Z" fill="#FFC0BB"/>
<g opacity="0.6">
<path opacity="0.6" d="M40.6549 186.981L40.3189 184.853L36.975 186.325L36.959 187.141C37.775 187.349 39.3269 187.541 40.6549 186.981Z" fill="#FC8D84"/>
</g>
<path d="M43.5347 181.573C43.4867 181.269 43.4227 180.981 43.3267 180.693C43.0867 179.909 42.6867 179.157 42.3028 178.549C42.2228 178.421 42.1428 178.277 42.0788 178.149C41.7908 177.589 41.3908 177.077 40.8628 176.645C39.1668 175.222 36.5429 174.406 34.703 175.638C32.2231 177.285 31.8551 181.317 33.631 183.605C33.279 183.653 32.975 183.845 32.815 184.149C32.5111 184.725 32.847 185.509 33.567 185.893C34.287 186.277 35.119 186.117 35.439 185.541C35.487 185.461 35.519 185.381 35.535 185.285C37.2469 187.077 40.0148 187.349 41.9028 185.829C42.8307 185.093 43.3747 184.053 43.5507 182.949C43.5667 182.885 43.5827 182.805 43.5827 182.725C43.5987 182.309 43.5827 181.941 43.5347 181.573Z" fill="#FFC0BB"/>
<path d="M39.6309 183.765C39.9669 184.101 40.5908 184.117 41.1508 183.781C41.6948 183.445 41.9828 182.885 41.8388 182.437L39.6309 183.765Z" fill="white"/>
<path d="M37.7589 179.957C37.5509 180.069 37.3589 180.181 37.1989 180.309C37.023 180.437 36.879 180.581 36.767 180.741C36.655 180.901 36.543 181.077 36.479 181.285L36.447 181.365C36.431 181.397 36.431 181.413 36.431 181.445L36.383 181.605C36.351 181.717 36.335 181.813 36.303 181.941C36.271 181.829 36.239 181.717 36.239 181.605C36.239 181.493 36.223 181.365 36.255 181.253C36.287 181.013 36.399 180.789 36.543 180.581C36.687 180.389 36.895 180.229 37.103 180.133C37.2789 179.989 37.5189 179.941 37.7589 179.957Z" fill="#07085B"/>
<path d="M39.4868 178.805C39.5508 178.597 39.6788 178.405 39.8388 178.245C39.9988 178.085 40.2068 177.957 40.4308 177.893C40.6548 177.829 40.8948 177.813 41.1188 177.861C41.2308 177.877 41.3268 177.925 41.4388 177.973C41.5348 178.021 41.6308 178.085 41.7108 178.149C41.5988 178.149 41.5028 178.117 41.3908 178.117L41.2308 178.101C41.1988 178.101 41.1828 178.101 41.1508 178.101H41.0708C40.8788 178.101 40.6868 178.133 40.4948 178.181C40.3188 178.229 40.1428 178.309 39.9668 178.421C39.8068 178.533 39.6468 178.661 39.4868 178.805Z" fill="#07085B"/>
<path d="M38.8789 179.589C38.9909 179.877 39.1509 180.165 39.3429 180.405C39.4389 180.533 39.5509 180.645 39.6629 180.757C39.7909 180.869 39.9189 180.965 40.1109 181.029L40.1909 181.045L40.2549 181.061C40.2869 181.061 40.3189 181.061 40.3349 181.077C40.3829 181.093 40.4309 181.125 40.4789 181.157C40.5589 181.221 40.6069 181.349 40.6069 181.477C40.6069 181.749 40.4629 182.021 40.2709 182.277C40.5429 182.117 40.7989 181.861 40.8469 181.493C40.8629 181.317 40.8309 181.109 40.6869 180.965C40.6549 180.933 40.6069 180.901 40.5749 180.869C40.5269 180.837 40.4789 180.821 40.4469 180.805C40.3989 180.789 40.3509 180.789 40.3029 180.773C40.2709 180.773 40.2709 180.773 40.2549 180.757L40.2069 180.741C40.0949 180.709 39.9669 180.629 39.8549 180.549C39.7429 180.469 39.6309 180.357 39.5189 180.261C39.2949 180.053 39.0869 179.813 38.8789 179.589Z" fill="#F99893"/>
<path d="M37.3109 181.877C37.3909 182.101 37.6468 182.213 37.8708 182.117C38.0948 182.037 38.2068 181.781 38.1108 181.557C38.0308 181.333 37.7748 181.221 37.5509 181.317C37.3429 181.397 37.2309 181.653 37.3109 181.877Z" fill="#333333"/>
<path d="M40.6388 179.717C40.7188 179.941 40.9748 180.053 41.1987 179.957C41.4227 179.877 41.5347 179.621 41.4387 179.397C41.3427 179.173 41.1028 179.061 40.8788 179.157C40.6548 179.253 40.5428 179.509 40.6388 179.717Z" fill="#333333"/>
<path d="M41.2788 177.029C38.4949 177.157 36.367 175.27 36.367 175.27C37.7429 178.997 33.1191 179.557 33.631 183.573C29.1672 182.277 32.4791 175.014 35.711 174.854C38.9589 174.71 41.0228 175.798 41.2788 177.029Z" fill="#07085B"/>
<path d="M33.247 189.781C27.9991 191.317 22.1273 198.324 22.1273 203.524C22.1273 208.724 31.471 212.787 31.471 212.787C32.751 211.891 33.727 210.531 33.727 210.531C29.5031 207.652 27.6952 204.564 29.0071 201.684C29.8071 199.908 31.583 199.092 32.927 197.812C35.4709 194.548 35.0229 189.733 33.247 189.781Z" fill="#FFC61C"/>
<path d="M180.795 265.232H102.733C85.9975 265.232 81.0056 170.822 81.0056 170.822H202.506C202.522 170.806 198.058 265.232 180.795 265.232Z" fill="#D1DDFB"/>
<path d="M122.922 258.451L124.587 259.234L127.541 252.95L125.876 252.167L122.922 258.451Z" fill="#A3BCFB"/>
<path d="M87.3213 175.867L86.1511 177.287L91.5096 181.703L92.6798 180.283L87.3213 175.867Z" fill="#A3BCFB"/>
<path d="M152.238 239.69L151.068 241.11L156.426 245.525L157.596 244.106L152.238 239.69Z" fill="#A3BCFB"/>
<path d="M107.484 219.885L106.682 221.54L112.931 224.569L113.733 222.913L107.484 219.885Z" fill="#A3BCFB"/>
<path d="M139.46 205.438L137.852 206.332L141.225 212.401L142.833 211.507L139.46 205.438Z" fill="#A3BCFB"/>
<path d="M94.8818 249.177L95.0719 251.008L101.979 250.29L101.789 248.46L94.8818 249.177Z" fill="#A3BCFB"/>
<path d="M135.722 174.312L135.912 176.142L142.818 175.425L142.628 173.595L135.722 174.312Z" fill="#A3BCFB"/>
<path d="M165.007 209.643L165.197 211.473L172.103 210.756L171.913 208.926L165.007 209.643Z" fill="#A3BCFB"/>
<path d="M112.427 188.59L110.735 187.867L108.006 194.251L109.698 194.974L112.427 188.59Z" fill="#A3BCFB"/>
<path d="M170.775 183.961L169.083 183.238L166.354 189.623L168.046 190.346L170.775 183.961Z" fill="#A3BCFB"/>
<path d="M196.39 173.69L194.868 174.723L198.768 180.468L200.291 179.435L196.39 173.69Z" fill="#A3BCFB"/>
<path d="M189.995 222.948L188.303 222.225L185.573 228.609L187.265 229.333L189.995 222.948Z" fill="#A3BCFB"/>
<path d="M187.49 255.571L186.522 254.006L180.616 257.658L181.584 259.223L187.49 255.571Z" fill="#A3BCFB"/>
<path d="M81.0215 170.806C81.0215 170.806 81.0695 171.558 81.1495 172.934H190.89C193.722 172.934 195.978 175.334 195.786 178.149C194.538 197.668 189.13 265.216 174.363 265.216H180.794C198.058 265.216 202.522 170.806 202.522 170.806H81.0215Z" fill="#D2D8E8"/>
<path d="M206.41 149.655H193.354C196.394 149.655 198.858 152.119 198.858 155.159V165.302C198.858 168.342 196.394 170.806 193.354 170.806H206.41C209.45 170.806 211.914 168.342 211.914 165.302V155.159C211.914 152.119 209.45 149.655 206.41 149.655Z" fill="#D2D8E8"/>
<path d="M241.961 264.368L195.674 144.215C195.546 143.863 195.146 143.687 194.794 143.831C194.442 143.959 194.266 144.359 194.41 144.711L197.898 153.767H177.707L174.027 144.215C173.899 143.863 173.499 143.687 173.147 143.831C172.795 143.959 172.619 144.359 172.763 144.711L219.049 264.864C219.161 265.136 219.417 265.296 219.689 265.296C219.769 265.296 219.849 265.28 219.929 265.248C220.281 265.12 220.457 264.72 220.313 264.368L218.537 259.745H238.729L240.697 264.864C240.809 265.136 241.065 265.296 241.337 265.296C241.417 265.296 241.497 265.28 241.577 265.248C241.929 265.12 242.105 264.72 241.961 264.368ZM207.514 231.154H227.705L230.937 239.554H210.746L207.514 231.154ZM203.834 221.619H224.025L227.257 230.018H207.066L203.834 221.619ZM200.17 212.083H220.361L223.593 220.483H203.402L200.17 212.083ZM192.826 193.029H213.018L216.249 201.428H196.058L192.826 193.029ZM189.146 183.493H209.338L212.57 191.893H192.378L189.146 183.493ZM185.482 173.974H205.674L208.906 182.373H188.714L185.482 173.974ZM216.697 202.564L219.929 210.963H199.738L196.506 202.564H216.697ZM205.242 172.838H185.05L181.819 164.438H202.01L205.242 172.838ZM211.178 240.69H231.369L234.601 249.089H214.41L211.178 240.69ZM198.33 154.903L201.562 163.302H181.371L178.139 154.903H198.33ZM218.089 258.609L214.858 250.209H235.049L238.281 258.609H218.089Z" fill="#07085B"/>
<path d="M209.514 121.513C203.306 140.712 201.786 147.207 201.338 159.175C199.162 162.118 197.706 159.175 197.706 159.175C195.722 142.12 199.066 124.057 198.73 124.393C204.042 122.025 209.514 121.513 209.514 121.513Z" fill="#015587"/>
<path d="M201.338 159.174L201.418 162.71C201.418 163.046 201.146 163.334 200.81 163.334L192.858 163.51C192.154 163.526 191.882 162.614 192.458 162.23L197.69 159.174C197.706 159.174 199.13 160.71 201.338 159.174Z" fill="#F9CC4B"/>
<path d="M200.986 116.041C192.49 119.881 184.906 125.289 184.042 127.464C183.594 133.816 186.058 149.543 186.058 149.543C186.058 151.527 189.21 151.431 189.69 149.543C189.69 149.543 191.162 133.448 190.81 130.632C191.002 129.272 197.162 127 204.97 125.017C211.002 123.481 212.554 120.697 212.122 116.185C208.058 114.377 200.986 116.041 200.986 116.041Z" fill="#026EAF"/>
<path d="M189.69 149.543L189.754 153.079C189.754 153.415 189.482 153.703 189.146 153.703L181.195 153.879C180.491 153.895 180.219 152.983 180.795 152.599L186.026 149.543C186.058 149.543 187.482 151.079 189.69 149.543Z" fill="#F9CC4B"/>
<path d="M199.114 90.1707C199.514 89.2747 200.282 88.7307 200.282 88.7307C206.282 90.8426 209.274 96.6183 210.634 100.394C212.17 104.698 213.914 116.041 213.066 118.969C205.162 118.297 203.018 117.561 199.626 116.489C199.002 109.434 199.722 111.977 198.49 103.498C197.306 95.3224 197.642 91.5466 197.642 91.5466C198.394 90.7946 199.114 90.1707 199.114 90.1707Z" fill="#FF5B7E"/>
<path d="M199.466 94.1864C198.81 95.0823 198.25 97.7062 198.89 100.794C201.418 101.034 204.57 101.194 205.098 100.906C205.434 98.4741 204.954 94.3144 203.674 93.1624C201.018 93.4504 199.466 94.1864 199.466 94.1864Z" fill="white"/>
<path d="M196.426 77.9794C198.378 78.3633 200.826 78.6513 201.13 80.7632C201.434 82.8751 200.986 84.987 200.57 86.0269C200.154 87.0668 200.106 88.5067 200.378 89.0347C198.602 88.2348 197.818 85.8669 197.818 85.8669C196.762 80.8752 196.426 77.9794 196.426 77.9794Z" fill="#07085B"/>
<path d="M197.658 91.5466L195.578 89.2427L198.522 87.3388L200.298 88.7307C200.666 89.0187 200.778 89.5307 200.554 89.9467C200.298 90.4266 199.37 91.3226 198.698 91.7066C198.346 91.8985 197.93 91.8345 197.658 91.5466Z" fill="#FFC0BB"/>
<g opacity="0.6">
<path opacity="0.6" d="M197.018 90.8426L195.578 89.2427L198.826 87.5788L199.466 88.0748C199.114 88.8267 198.298 90.1546 197.018 90.8426Z" fill="#FC8D84"/>
</g>
<path d="M191.002 89.6586C190.794 89.4347 190.618 89.1947 190.442 88.9387C189.978 88.2507 189.658 87.4828 189.418 86.7948C189.37 86.6508 189.306 86.5068 189.242 86.3628C189.002 85.7869 188.858 85.1469 188.842 84.459C188.81 82.2511 190.25 80.2352 192.362 79.5793C195.21 78.6833 198.122 80.4112 198.794 83.227C199.066 82.987 199.402 82.8591 199.738 82.923C200.378 83.051 200.778 83.803 200.618 84.6029C200.458 85.4029 199.818 85.9629 199.178 85.8349C199.082 85.8189 199.002 85.7869 198.922 85.7549C199.242 88.2187 197.706 90.5226 195.338 91.0346C194.186 91.2905 193.018 91.0666 192.058 90.4906C191.994 90.4586 191.93 90.4266 191.85 90.3786C191.546 90.1866 191.258 89.9466 191.002 89.6586Z" fill="#FFC0BB"/>
<path d="M195.162 88.0267C195.21 88.4907 194.826 89.0027 194.218 89.2107C193.61 89.4347 193.002 89.2907 192.73 88.8907L195.162 88.0267Z" fill="white"/>
<path d="M193.386 84.155C193.594 84.059 193.802 83.995 194.01 83.931C194.218 83.883 194.426 83.851 194.618 83.867C194.826 83.883 195.018 83.899 195.226 83.979L195.306 83.995C195.338 83.995 195.354 84.011 195.386 84.027L195.53 84.091C195.626 84.139 195.722 84.187 195.834 84.235C195.77 84.139 195.69 84.043 195.61 83.963C195.514 83.883 195.434 83.803 195.322 83.755C195.114 83.627 194.874 83.563 194.618 83.563C194.378 83.547 194.122 83.611 193.914 83.723C193.722 83.819 193.53 83.963 193.386 84.155Z" fill="#07085B"/>
<path d="M191.418 84.779C191.21 84.683 190.986 84.667 190.762 84.699C190.538 84.731 190.314 84.811 190.122 84.939C189.93 85.0669 189.77 85.2429 189.674 85.4509C189.61 85.5469 189.594 85.6589 189.562 85.7709C189.546 85.8829 189.53 85.9949 189.53 86.0909C189.594 85.9949 189.642 85.9149 189.706 85.8189L189.802 85.6909C189.818 85.6749 189.834 85.6429 189.85 85.6269L189.898 85.5629C190.01 85.4029 190.17 85.2749 190.314 85.1629C190.474 85.0509 190.65 84.9709 190.826 84.907C191.002 84.859 191.194 84.811 191.418 84.779Z" fill="#07085B"/>
<path d="M192.41 84.7949C192.57 85.0669 192.682 85.3709 192.762 85.6749C192.794 85.8349 192.826 85.9949 192.842 86.1549C192.842 86.3148 192.842 86.4908 192.762 86.6668L192.73 86.7308L192.698 86.7948C192.682 86.8268 192.666 86.8428 192.65 86.8748C192.634 86.9228 192.618 86.9868 192.618 87.0348C192.618 87.1468 192.682 87.2428 192.778 87.3388C192.986 87.5148 193.29 87.5788 193.61 87.5788C193.322 87.6908 192.954 87.7228 192.65 87.5308C192.506 87.4348 192.362 87.2748 192.346 87.0668C192.346 87.0188 192.346 86.9708 192.346 86.9228C192.346 86.8748 192.362 86.8268 192.378 86.7788C192.394 86.7308 192.426 86.6988 192.442 86.6508C192.458 86.6188 192.458 86.6188 192.458 86.6028L192.474 86.5708C192.522 86.4588 192.538 86.3148 192.538 86.1708C192.538 86.0269 192.522 85.8829 192.522 85.7229C192.49 85.4189 192.442 85.1149 192.41 84.7949Z" fill="#F99893"/>
<path d="M195.146 85.0349C195.258 85.2429 195.194 85.4989 194.986 85.6269C194.778 85.7389 194.522 85.6749 194.394 85.4669C194.282 85.2589 194.346 85.003 194.554 84.875C194.778 84.747 195.034 84.827 195.146 85.0349Z" fill="#333333"/>
<path d="M191.402 86.2508C191.514 86.4588 191.45 86.7148 191.242 86.8428C191.034 86.9548 190.778 86.8908 190.65 86.6828C190.538 86.4748 190.602 86.2188 190.81 86.0908C191.018 85.9789 191.274 86.0428 191.402 86.2508Z" fill="#333333"/>
<path d="M198.81 83.243C198.426 83.819 198.394 84.235 198.394 84.235C196.97 83.371 196.474 81.1471 196.282 80.5072C195.53 79.8992 195.306 81.3711 194.874 81.6751C194.442 81.9791 193.722 81.6911 194.218 80.6832C193.178 81.1151 193.466 82.5871 192.49 82.5231C191.466 82.4591 192.346 81.0672 192.346 81.0672C190.954 82.0111 191.866 83.435 190.682 83.611C189.834 83.739 190.026 82.2991 190.026 82.2991C189.546 83.739 188.81 84.4749 187.866 84.027C187.146 83.691 187.306 82.6511 187.77 82.2831C185.978 82.827 185.434 81.8831 185.658 81.2911C185.882 80.6832 186.442 80.9072 186.81 80.3152C184.666 80.3952 185.802 78.6353 188.042 78.5713C186.442 77.8193 188.394 76.7794 189.69 77.3234C188.442 76.2514 190.826 75.6115 192.106 75.9315C191.402 75.0675 192.954 74.8275 194.778 75.2755C193.914 74.0756 196.058 74.2356 197.962 75.5635C199.898 76.9074 200.97 78.7633 201.162 80.7952C201.322 82.795 199.226 82.2511 198.81 83.243Z" fill="#07085B"/>
<path d="M186.49 111.705L185.53 111.929L185.418 111.465C185.29 110.889 184.698 110.537 184.122 110.665L183.754 110.745L183.738 110.697C183.562 109.945 182.842 109.466 182.123 109.642L178.811 110.425C178.107 110.585 177.675 111.337 177.851 112.089L177.867 112.137L177.499 112.217C176.923 112.345 176.571 112.937 176.699 113.513L177.035 114.953C175.595 115.273 174.443 116.105 173.803 117.305L169.851 115.897V115.881L166.587 112.777L165.963 118.185L169.883 116.729L178.555 121.385L178.523 121.257C178.619 121.641 178.987 121.865 179.371 121.785L186.698 120.057C187.082 119.961 187.306 119.593 187.226 119.209L187.034 118.377L187.994 118.153C188.746 117.977 189.178 117.065 188.954 116.121L188.234 113.097C188.026 112.153 187.242 111.529 186.49 111.705ZM174.587 117.577C175.131 116.633 176.075 115.977 177.243 115.721L177.963 118.793L174.587 117.577ZM178.587 111.913C178.507 111.577 178.635 111.001 178.955 110.937L182.266 110.153C182.57 110.073 182.954 110.537 183.034 110.873L183.05 110.921L178.603 111.961L178.587 111.913ZM188.49 116.425C188.602 116.873 188.17 117.353 187.834 117.433L186.874 117.657L185.69 112.649L186.65 112.425C186.986 112.345 187.578 112.585 187.69 113.033L188.49 116.425Z" fill="#FF5B7E"/>
<path d="M202.458 92.8425C198.602 91.5466 199.354 98.8101 199.466 106.858C199.466 106.858 197.034 108.618 191.066 112.601C189.498 112.585 187.946 111.993 186.474 112.697C185.802 113.545 186.922 116.713 187.994 116.761C189.786 116.345 191.29 114.825 191.93 114.585C191.946 114.585 191.962 114.569 191.978 114.569C192.01 114.553 192.042 114.553 192.058 114.553C198.346 112.729 202.762 110.553 203.754 108.634C204.378 107.434 205.466 93.8664 202.458 92.8425Z" fill="#FFC0BB"/>
<path d="M201.578 92.0905C203.978 92.0905 205.114 94.2024 205.114 100.906C202.298 101.242 198.906 100.794 198.906 100.794C198.538 96.2502 198.954 92.0905 201.578 92.0905Z" fill="#FF5B7E"/>
<path d="M160.424 0.0920357L159.677 0.00495911L157.383 19.6791L158.13 19.7661L160.424 0.0920357Z" fill="#FFCB2E"/>
<path d="M197.052 20.0514L196.571 19.4733L181.343 32.1398L181.824 32.7179L197.052 20.0514Z" fill="#FFCB2E"/>
<path d="M214.721 51.0703L214.484 50.3567L195.687 56.5998L195.924 57.3134L214.721 51.0703Z" fill="#FFCB2E"/>
<path d="M118.704 7.71373L118.058 8.09851L128.194 25.1145L128.84 24.7298L118.704 7.71373Z" fill="#FFCB2E"/>
<path d="M92.122 33.7508L91.7229 34.3881L106.557 43.6769L106.956 43.0396L92.122 33.7508Z" fill="#FFCB2E"/>
</svg>
