<svg width="168" height="168" viewBox="0 0 168 168" fill="none" xmlns="http://www.w3.org/2000/svg">
<path d="M59.6129 24.3871H51.4839V43.3548H59.6129V24.3871Z" fill="#890606"/>
<path d="M116.516 24.3871H108.387V43.3548H116.516V24.3871Z" fill="#890606"/>
<path d="M116.516 25.471C116.516 27.9097 114.077 29.8064 110.284 29.8064H57.7161C53.6516 29.8064 51.4839 27.9097 51.4839 25.471V17.8839C51.4839 15.1742 53.9226 13.5484 57.7161 13.5484H110.013C114.077 13.5484 116.516 15.1742 116.516 17.8839V25.471Z" fill="#ED5B3A"/>
<path d="M110.284 13.5484H57.7161C53.9226 13.5484 51.4839 15.1742 51.4839 17.8839V18.1548C59.6129 20.3226 70.4516 21.6774 84 21.6774C97.5484 21.6774 108.387 20.3226 116.516 17.8839C116.516 15.1742 114.077 13.5484 110.284 13.5484Z" fill="#F48B56"/>
<path d="M168 146.052C168 150.658 164.206 154.452 159.6 154.452H8.4C3.79355 154.452 0 150.658 0 146.052V49.0452C0 44.4387 3.79355 40.6452 8.4 40.6452H159.6C164.206 40.6452 168 44.4387 168 49.0452V146.052Z" fill="#08476B"/>
<path d="M0.541931 48.7742C0.541931 44.1677 4.33548 40.6452 8.94193 40.6452H159.058C163.665 40.6452 168 44.4387 168 49.0452V146.323C168 150.929 163.665 154.452 159.058 154.452H92.129" fill="#05365B"/>
<path d="M84 118.684C121.935 118.684 154.452 105.406 168 86.9806V61.7806C168 57.1742 163.665 54.1935 159.058 54.1935H8.94194C4.33548 54.1935 0 57.1742 0 61.7806V86.9806C13.5484 105.677 46.0645 118.684 84 118.684Z" fill="#002C47"/>
<path d="M84 106.219C121.935 106.219 154.452 92.9419 168 74.5161V49.3161C168 44.7097 163.665 40.9161 159.058 40.9161H8.4C3.79355 40.6452 0 44.4387 0 49.0452V74.2452C13.5484 92.9419 46.0645 106.219 84 106.219Z" fill="#2072A0"/>
<path d="M84 105.948C121.935 105.948 154.452 92.9419 168 74.2452V49.0452C168 44.4387 164.206 40.6452 159.6 40.6452H8.12903" fill="#195F8E"/>
<path d="M94.8387 125.187C94.8387 127.355 93.2129 130.065 90.7742 130.065H78.0387C75.6 130.065 73.4323 127.084 73.4323 125.187V98.3613C73.4323 96.1935 75.0581 97.8193 77.4968 97.8193H90.7742C93.2129 97.8193 94.8387 96.4645 94.8387 98.3613V125.187Z" fill="#002C47"/>
<path d="M94.8387 119.226C94.8387 121.394 93.2129 121.935 90.7742 121.935H77.4968C75.0581 121.935 73.4323 121.394 73.4323 119.226V92.4C73.4323 90.2323 75.0581 92.129 77.4968 92.129H90.7742C93.2129 92.129 94.8387 90.2323 94.8387 92.4V119.226Z" fill="#ED5B3A"/>
<path d="M73.1613 92.4C73.1613 90.2323 74.7871 92.129 77.2258 92.129H90.5032C92.9419 92.129 94.5677 90.2323 94.5677 92.4V119.226C94.5677 121.394 92.9419 121.935 90.5032 121.935" fill="#DD4228"/>
<path d="M89.4193 115.432C89.4193 116.516 89.1483 116.516 87.7935 116.516H80.2064C78.8515 116.516 78.5806 116.516 78.5806 115.432V97.2774C78.5806 96.1936 79.3935 97.5484 81.0193 97.5484H87.2515C88.6064 97.5484 89.4193 96.1936 89.4193 97.2774V115.432Z" fill="#B53023"/>
<path d="M78.5806 97.2774C78.5806 96.1936 79.9354 97.5484 81.2902 97.5484H86.9806C88.3354 97.5484 89.4193 96.1936 89.4193 97.2774V115.432C89.4193 116.516 88.8773 116.516 87.2515 116.516" fill="#9B1812"/>
</svg>
